<svg xmlns="http://www.w3.org/2000/svg" xmlns:xlink="http://www.w3.org/1999/xlink" width="1360.5" height="1000" viewBox="0 0 1360.5 1000"><defs><linearGradient id="a" x1="0.5" x2="0.5" y2="1" gradientUnits="objectBoundingBox"><stop offset="0" stop-color="#fff"/><stop offset="1" stop-color="#f5f5f5"/></linearGradient></defs><path d="M0,0H1360a0,0,0,0,1,0,0V858a6,6,0,0,1-6,6H6a6,6,0,0,1-6-6V0A0,0,0,0,1,0,0Z" transform="translate(0 88)" fill="#fff"/><g transform="translate(-3878 -2153)"><path d="M6,0H1354a6,6,0,0,1,6,6V88a0,0,0,0,1,0,0H0a0,0,0,0,1,0,0V6A6,6,0,0,1,6,0Z" transform="translate(3878 2153)" fill="url(#a)"/><path d="M2.4,6.064V30h9.824c6.816,0,11.9-4.448,11.9-11.968S19.072,6.064,12.256,6.064Zm4.928,4.224h4.96c4.192,0,6.944,2.592,6.944,7.744s-2.784,7.744-6.944,7.744H7.328Zm35.36,12.928V21.36c0-5.152-3.136-8.224-7.9-8.224-4.928,0-8.416,3.264-8.416,8.608,0,5.312,3.488,8.608,8.544,8.608,3.872,0,7.04-2.24,7.616-5.376l-4.7-.224c-.352,1.152-1.408,1.824-3.04,1.824a3.234,3.234,0,0,1-3.456-3.36Zm-7.936-6.432c2.112,0,3.136,1.312,3.232,3.328H31.328A3.232,3.232,0,0,1,34.752,16.784ZM53.6,30l7.136-16.544H55.584l-3.84,9.728-3.872-9.728H42.72L49.856,30ZM64.8,5.232a2.814,2.814,0,0,0-2.784,2.816,2.8,2.8,0,0,0,5.6,0A2.8,2.8,0,0,0,64.8,5.232ZM67.136,30V13.456H62.464V30ZM78.624,13.136c-4.9,0-8.48,3.168-8.48,8.608,0,5.408,3.616,8.608,8.48,8.608,4.064,0,7.2-2.4,7.84-6.3l-4.544-.416a3.07,3.07,0,0,1-3.3,2.688c-2.176,0-3.744-1.664-3.744-4.576,0-2.944,1.568-4.608,3.744-4.608a3.09,3.09,0,0,1,3.264,2.784l4.576-.384C85.856,15.536,82.656,13.136,78.624,13.136Zm26.048,10.08V21.36c0-5.152-3.136-8.224-7.9-8.224-4.928,0-8.416,3.264-8.416,8.608,0,5.312,3.488,8.608,8.544,8.608,3.872,0,7.04-2.24,7.616-5.376l-4.7-.224c-.352,1.152-1.408,1.824-3.04,1.824a3.234,3.234,0,0,1-3.456-3.36Zm-7.936-6.432c2.112,0,3.136,1.312,3.232,3.328H93.312A3.232,3.232,0,0,1,96.736,16.784Zm20.16,7.008V19.44H106.784v4.352ZM129.152,30l10.08-23.936h-5.44l-6.72,16.256L120.32,6.064h-5.408L124.992,30Zm24.672-6.784V21.36c0-5.152-3.136-8.224-7.9-8.224-4.928,0-8.416,3.264-8.416,8.608,0,5.312,3.488,8.608,8.544,8.608,3.872,0,7.04-2.24,7.616-5.376l-4.7-.224c-.352,1.152-1.408,1.824-3.04,1.824a3.234,3.234,0,0,1-3.456-3.36Zm-7.936-6.432c2.112,0,3.136,1.312,3.232,3.328h-6.656A3.232,3.232,0,0,1,145.888,16.784ZM165.856,13.3c-2.528,0-3.84.96-4.544,2.048V13.456H156.8V30h4.672V21.616c0-2.272,1.7-3.808,4.384-3.808Zm8.416,4.192h3.9V13.456H174.3l.032-5.472h-4.672l-.032,5.472h-3.04v4.032H169.6l-.032,7.264c-.032,3.84,2.432,5.568,6.016,5.568a15.559,15.559,0,0,0,2.592-.192v-4.16a6.908,6.908,0,0,1-1.44.16,2.282,2.282,0,0,1-2.5-2.5Zm21.888,5.728V21.36c0-5.152-3.136-8.224-7.9-8.224-4.928,0-8.416,3.264-8.416,8.608,0,5.312,3.488,8.608,8.544,8.608,3.872,0,7.04-2.24,7.616-5.376l-4.7-.224c-.352,1.152-1.408,1.824-3.04,1.824a3.234,3.234,0,0,1-3.456-3.36Zm-7.936-6.432c2.112,0,3.136,1.312,3.232,3.328H184.8A3.232,3.232,0,0,1,188.224,16.784ZM201.472,5.232a2.814,2.814,0,0,0-2.784,2.816,2.8,2.8,0,0,0,5.6,0A2.8,2.8,0,0,0,201.472,5.232ZM203.808,30V13.456h-4.672V30Zm8.576,0V5.136h-4.672V30Zm18.56,0V13.456h-4.672V22.8c0,1.856-1.024,3.2-2.816,3.2-1.824,0-2.656-1.12-2.656-3.136V13.456h-4.672v10.4c0,4.032,2.3,6.5,6.112,6.5a4.73,4.73,0,0,0,4.288-2.016V30ZM243.68,13.136a5,5,0,0,0-4.448,2.016v-1.7h-4.416V30h4.672V20.816a3.03,3.03,0,0,1,3.072-3.328c1.792,0,2.912,1.184,2.912,3.3V30h4.672V19.888C250.144,15.6,247.488,13.136,243.68,13.136Zm17.248,0c-4.672,0-7.968,3.424-7.968,8.608s3.3,8.608,7.968,8.608a6.37,6.37,0,0,0,4.672-1.76V30.96c0,2.368-1.568,3.552-3.872,3.552-2.112,0-3.488-.96-3.712-2.56l-4.64.16c.608,3.776,3.328,6.368,8.512,6.368,5.088,0,8.352-3.1,8.352-7.872V13.456h-4.384v1.728A6.047,6.047,0,0,0,260.928,13.136Zm.768,4c2.3,0,3.9,1.568,3.9,4.224v.768c0,2.656-1.6,4.224-3.9,4.224-2.336,0-4-1.664-4-4.608S259.36,17.136,261.7,17.136Zm27.52-4a5,5,0,0,0-4.448,2.016v-1.7h-4.416V30h4.672V20.816a3.03,3.03,0,0,1,3.072-3.328c1.792,0,2.912,1.184,2.912,3.3V30h4.672V19.888C295.68,15.6,293.024,13.136,289.216,13.136Zm16.64,0c-4.256,0-6.912,3.008-6.912,5.92l4.672.192a2.115,2.115,0,0,1,2.3-2.176c1.44,0,2.144.9,2.144,2.56v.64l-2.944.16c-3.52.16-6.624,1.344-6.624,5.024,0,3.2,2.176,4.9,5.5,4.9a5.726,5.726,0,0,0,4.224-1.7V30h4.512V19.792C312.736,15.44,310.3,13.136,305.856,13.136Zm2.208,10.208v.7c0,1.76-1.28,2.688-2.976,2.688-1.12,0-1.92-.416-1.92-1.5,0-1.184.992-1.664,2.4-1.728Zm16-10.208c-4.9,0-8.48,3.168-8.48,8.608,0,5.408,3.616,8.608,8.48,8.608,4.064,0,7.2-2.4,7.84-6.3l-4.544-.416a3.07,3.07,0,0,1-3.3,2.688c-2.176,0-3.744-1.664-3.744-4.576,0-2.944,1.568-4.608,3.744-4.608a3.09,3.09,0,0,1,3.264,2.784l4.576-.384C331.3,15.536,328.1,13.136,324.064,13.136Zm15.3-8h-4.672V30h4.672V20.816a3.03,3.03,0,0,1,3.072-3.328c1.792,0,2.912,1.184,2.912,3.3V30h4.672V19.888c0-4.288-2.656-6.752-6.464-6.752a5.114,5.114,0,0,0-4.192,1.728Zm28.992.576c-5.728,0-8.512,3.392-8.512,7.328,0,4.64,3.584,5.888,7.9,6.976,3.2.8,4.928,1.472,4.928,3.3,0,1.952-1.568,2.752-3.776,2.752-2.592,0-4.48-1.472-4.576-3.648l-5.024.256c.064,4.96,4.064,7.68,9.6,7.68,4.8,0,8.8-2.24,8.8-7.328,0-4.256-3.232-5.792-8.128-7.04-3.3-.768-4.672-1.28-4.672-3.1,0-1.7,1.28-2.88,3.552-2.88s3.68,1.312,3.712,3.328l5.056-.256C377.088,8.464,373.536,5.712,368.352,5.712ZM395.3,30V13.456h-4.672V22.8c0,1.856-1.024,3.2-2.816,3.2-1.824,0-2.656-1.12-2.656-3.136V13.456H380.48v10.4c0,4.032,2.3,6.5,6.112,6.5a4.73,4.73,0,0,0,4.288-2.016V30Zm11.456-16.864c-4.9,0-8.48,3.168-8.48,8.608,0,5.408,3.616,8.608,8.48,8.608,4.064,0,7.2-2.4,7.84-6.3l-4.544-.416a3.07,3.07,0,0,1-3.3,2.688c-2.176,0-3.744-1.664-3.744-4.576,0-2.944,1.568-4.608,3.744-4.608a3.09,3.09,0,0,1,3.264,2.784l4.576-.384C413.984,15.536,410.784,13.136,406.752,13.136Zm15.3-8h-4.672V30h4.672V20.816a3.03,3.03,0,0,1,3.072-3.328c1.792,0,2.912,1.184,2.912,3.3V30H432.7V19.888c0-4.288-2.656-6.752-6.464-6.752a5.114,5.114,0,0,0-4.192,1.728ZM444.832,30l7.136-16.544h-5.152l-3.84,9.728L439.1,13.456h-5.152L441.088,30ZM460.8,13.136c-5.056,0-8.8,3.392-8.8,8.608,0,5.184,3.744,8.608,8.8,8.608s8.8-3.424,8.8-8.608C469.6,16.528,465.856,13.136,460.8,13.136Zm0,4c2.4,0,4.064,1.7,4.064,4.608,0,2.88-1.664,4.576-4.064,4.576s-4.064-1.7-4.064-4.576C456.736,18.832,458.4,17.136,460.8,17.136ZM477.248,30V5.136h-4.672V30Zm18.56,0V13.456h-4.672V22.8c0,1.856-1.024,3.2-2.816,3.2-1.824,0-2.656-1.12-2.656-3.136V13.456h-4.672v10.4c0,4.032,2.3,6.5,6.112,6.5a4.73,4.73,0,0,0,4.288-2.016V30ZM518.72,13.136a5.7,5.7,0,0,0-5.088,2.624,5.872,5.872,0,0,0-5.184-2.624,4.772,4.772,0,0,0-4.352,2.016v-1.7H499.68V30h4.672V20.816c0-1.984,1.12-3.328,2.976-3.328,1.7,0,2.688,1.184,2.688,3.3V30h4.672V20.24a2.8,2.8,0,0,1,2.88-2.752c1.792,0,2.752,1.184,2.752,3.3V30h4.672V19.856C524.992,15.664,522.5,13.136,518.72,13.136Zm25.408,10.08V21.36c0-5.152-3.136-8.224-7.9-8.224-4.928,0-8.416,3.264-8.416,8.608,0,5.312,3.488,8.608,8.544,8.608,3.872,0,7.04-2.24,7.616-5.376l-4.7-.224c-.352,1.152-1.408,1.824-3.04,1.824a3.234,3.234,0,0,1-3.456-3.36Zm-7.936-6.432c2.112,0,3.136,1.312,3.232,3.328h-6.656A3.232,3.232,0,0,1,536.192,16.784Zm19.776-3.648a5,5,0,0,0-4.448,2.016v-1.7H547.1V30h4.672V20.816a3.03,3.03,0,0,1,3.072-3.328c1.792,0,2.912,1.184,2.912,3.3V30h4.672V19.888C562.432,15.6,559.776,13.136,555.968,13.136Z" transform="translate(3991 2180)" fill="#00285a"/><line x2="1360" transform="translate(3878.5 2240.5)" fill="none" stroke="#e3e3e3" stroke-width="2"/></g><g transform="translate(111)"><rect width="257" height="52" transform="translate(977 888)" fill="#fff"/><g transform="translate(1017.8 1041.823)"><path d="M87.056,45.443c0,3.458-3.332,6.665-9.683,6.665A18.539,18.539,0,0,1,69.2,50.221l1.509-2.641a14.128,14.128,0,0,0,6.79,1.7c3.018,0,4.9-1.257,4.9-3.269,0-1.509-1.132-2.515-3.71-3.018l-2.641-.629a7.92,7.92,0,0,1-4.778-2.515,4.5,4.5,0,0,1-1.006-3.018c0-3.647,3.458-6.162,8.425-6.162a15.572,15.572,0,0,1,7.859,2.012l-1.886,2.452a12.094,12.094,0,0,0-5.847-1.509c-2.452,0-4.024,1.132-4.024,2.829,0,1.32.88,1.949,3.269,2.578l2.955.692C84.541,40.413,87.056,42.3,87.056,45.443Zm26.533-5.91-2.955-.692c-2.452-.629-3.269-1.257-3.269-2.578,0-1.7,1.635-2.829,4.024-2.829a11.918,11.918,0,0,1,5.847,1.509l1.886-2.452a15.463,15.463,0,0,0-7.859-1.886c-4.967,0-8.425,2.515-8.425,6.162a4.29,4.29,0,0,0,1.006,3.018,7.909,7.909,0,0,0,4.841,2.515l2.641.629c2.578.566,3.71,1.509,3.71,3.018,0,2.075-1.823,3.269-4.9,3.269a14.822,14.822,0,0,1-6.728-1.7l-1.509,2.641a18.342,18.342,0,0,0,8.174,1.886c6.35,0,9.683-3.207,9.683-6.665C119.688,42.3,117.173,40.413,113.59,39.533ZM92.527,51.668h4.213V30.919H92.527Zm29.3-17.919h6.287V51.668h4.15V33.811h6.225l.566-2.892H121.889v2.829Zm60.8,6.539,6.287-9.431h-4.9l-3.9,6.476-3.961-6.413h-5.03l6.665,9.62L170.177,51.73h5.093l4.967-8.237,5.156,8.237h4.9ZM154.835,46.7l3.647,4.967h-4.9l-2.138-3.207a23.639,23.639,0,0,0-4.213-5.156,2.227,2.227,0,0,0-1.635-.629V51.73h-4.087V30.919h7.608c5.533,0,8.111,2.7,8.111,5.973a5.742,5.742,0,0,1-5.722,5.722h-.44A16.7,16.7,0,0,1,154.835,46.7Zm-3.018-7.293a3.256,3.256,0,0,0,1.132-2.515c0-2.138-1.383-3.207-5.03-3.207h-2.326v6.6h2.138a6.4,6.4,0,0,0,4.087-.88ZM162.946,51.73h4.213V30.919h-4.275Zm75.324,15.4L226.009,54.874a17.341,17.341,0,1,1,3.018-3.081l12.323,12.323ZM215.384,55.063a13.77,13.77,0,1,0-13.77-13.77,13.766,13.766,0,0,0,13.77,13.77Z" transform="translate(-34 -178)" fill="#ddd"/></g></g><path d="M39.453,34.586,31.664,26.8a1.874,1.874,0,0,0-1.328-.547H29.063a16.243,16.243,0,1,0-2.812,2.813v1.273a1.874,1.874,0,0,0,.547,1.328l7.789,7.789a1.867,1.867,0,0,0,2.648,0l2.211-2.211A1.884,1.884,0,0,0,39.453,34.586ZM16.25,26.25a10,10,0,1,1,10-10A9.994,9.994,0,0,1,16.25,26.25Z" transform="translate(37 26)" fill="#1269d3"/><rect width="38" height="148" transform="translate(7 122)" fill="#fff"/><path d="M299.215,5.938l5.578,13.922,5.578-13.922h2.918V23h-2.25V16.355l.211-7.172L305.648,23h-1.723l-5.59-13.781.223,7.137V23h-2.25V5.938Zm17.133,10.605a7.489,7.489,0,0,1,.732-3.352,5.464,5.464,0,0,1,2.039-2.3,5.551,5.551,0,0,1,2.982-.809,5.347,5.347,0,0,1,4.189,1.793,6.9,6.9,0,0,1,1.6,4.77V16.8a7.555,7.555,0,0,1-.709,3.322,5.383,5.383,0,0,1-2.027,2.291,5.614,5.614,0,0,1-3.029.82,5.334,5.334,0,0,1-4.178-1.793,6.863,6.863,0,0,1-1.6-4.746Zm2.18.258a5.424,5.424,0,0,0,.979,3.387,3.316,3.316,0,0,0,5.244-.018,5.932,5.932,0,0,0,.973-3.627,5.415,5.415,0,0,0-.99-3.381,3.148,3.148,0,0,0-2.631-1.295,3.113,3.113,0,0,0-2.59,1.277A5.888,5.888,0,0,0,318.527,16.8Zm14.133-6.48.07,1.594a4.621,4.621,0,0,1,3.8-1.828q4.02,0,4.055,4.535V23h-2.168V14.609a2.919,2.919,0,0,0-.627-2.027,2.512,2.512,0,0,0-1.916-.656,3.129,3.129,0,0,0-1.852.563,3.82,3.82,0,0,0-1.242,1.477V23h-2.168V10.32ZM351.68,23a4.554,4.554,0,0,1-.3-1.336,4.837,4.837,0,0,1-3.609,1.57,4.476,4.476,0,0,1-3.076-1.061,3.431,3.431,0,0,1-1.2-2.689,3.584,3.584,0,0,1,1.506-3.076,7.1,7.1,0,0,1,4.236-1.1h2.109v-1a2.435,2.435,0,0,0-.68-1.811,2.732,2.732,0,0,0-2-.674,3.161,3.161,0,0,0-1.945.586,1.727,1.727,0,0,0-.785,1.418h-2.18A2.992,2.992,0,0,1,344.42,12a4.6,4.6,0,0,1,1.828-1.4,6.15,6.15,0,0,1,2.537-.516,5.013,5.013,0,0,1,3.434,1.1,3.953,3.953,0,0,1,1.289,3.018v5.836a7.135,7.135,0,0,0,.445,2.777V23Zm-3.6-1.652a3.81,3.81,0,0,0,1.934-.527,3.19,3.19,0,0,0,1.324-1.371v-2.6h-1.7q-3.984,0-3.984,2.332a1.974,1.974,0,0,0,.68,1.594A2.612,2.612,0,0,0,348.082,21.348Zm11.766-14.1v3.07h2.367V12h-2.367v7.873a1.76,1.76,0,0,0,.316,1.144,1.332,1.332,0,0,0,1.078.381,5.249,5.249,0,0,0,1.031-.141V23a6.322,6.322,0,0,1-1.664.233,2.7,2.7,0,0,1-2.191-.879,3.776,3.776,0,0,1-.738-2.5V12h-2.309V10.32h2.309V7.25ZM367.1,23h-2.168V5H367.1Zm5.824,0h-2.168V10.32h2.168ZM370.582,6.957a1.294,1.294,0,0,1,.322-.891,1.21,1.21,0,0,1,.955-.363,1.229,1.229,0,0,1,.961.363,1.28,1.28,0,0,1,.328.891,1.238,1.238,0,0,1-.328.879,1.251,1.251,0,0,1-.961.352,1.232,1.232,0,0,1-.955-.352A1.251,1.251,0,0,1,370.582,6.957Zm10.9,14.508a3.123,3.123,0,0,0,2.027-.7A2.474,2.474,0,0,0,384.469,19h2.051a3.931,3.931,0,0,1-.75,2.074,4.94,4.94,0,0,1-1.846,1.57,5.326,5.326,0,0,1-2.443.586,5.223,5.223,0,0,1-4.119-1.729,6.884,6.884,0,0,1-1.529-4.729v-.363a7.634,7.634,0,0,1,.68-3.293,5.177,5.177,0,0,1,1.951-2.238,5.543,5.543,0,0,1,3.006-.8,5.085,5.085,0,0,1,3.545,1.277,4.565,4.565,0,0,1,1.506,3.316h-2.051a2.988,2.988,0,0,0-.932-2.021,2.9,2.9,0,0,0-2.068-.791,3.034,3.034,0,0,0-2.561,1.189A5.586,5.586,0,0,0,378,16.5v.41a5.475,5.475,0,0,0,.9,3.375A3.049,3.049,0,0,0,381.48,21.465Zm9.645-9.609a4.609,4.609,0,0,1,3.75-1.77q4.02,0,4.055,4.535V23h-2.168V14.609a2.919,2.919,0,0,0-.627-2.027,2.512,2.512,0,0,0-1.916-.656,3.129,3.129,0,0,0-1.852.563,3.82,3.82,0,0,0-1.242,1.477V23h-2.168V5h2.168Zm16.313,11.379a5.54,5.54,0,0,1-4.2-1.693,6.285,6.285,0,0,1-1.617-4.529v-.4a7.609,7.609,0,0,1,.721-3.369,5.622,5.622,0,0,1,2.016-2.32,5.068,5.068,0,0,1,2.807-.838,4.749,4.749,0,0,1,3.844,1.629,7.053,7.053,0,0,1,1.371,4.664v.9h-8.59a4.507,4.507,0,0,0,1.1,3.029,3.444,3.444,0,0,0,2.666,1.154A3.776,3.776,0,0,0,409.5,21a4.888,4.888,0,0,0,1.395-1.242l1.324,1.031A5.325,5.325,0,0,1,407.438,23.234Zm-.27-11.367a2.892,2.892,0,0,0-2.2.955,4.642,4.642,0,0,0-1.1,2.678h6.352v-.164a4.129,4.129,0,0,0-.891-2.561A2.723,2.723,0,0,0,407.168,11.867Zm15.105,7.77a1.6,1.6,0,0,0-.662-1.365,6.373,6.373,0,0,0-2.309-.838,10.915,10.915,0,0,1-2.613-.844,3.718,3.718,0,0,1-1.43-1.172A2.8,2.8,0,0,1,414.8,13.8a3.289,3.289,0,0,1,1.318-2.637,5.149,5.149,0,0,1,3.369-1.078,5.3,5.3,0,0,1,3.5,1.113,3.536,3.536,0,0,1,1.342,2.848h-2.18a1.957,1.957,0,0,0-.756-1.535,2.832,2.832,0,0,0-1.9-.645,2.964,2.964,0,0,0-1.852.516,1.623,1.623,0,0,0-.668,1.348,1.315,1.315,0,0,0,.621,1.184,7.642,7.642,0,0,0,2.244.762,11.693,11.693,0,0,1,2.631.867,3.838,3.838,0,0,1,1.494,1.213,2.982,2.982,0,0,1,.486,1.729,3.245,3.245,0,0,1-1.359,2.725,5.7,5.7,0,0,1-3.527,1.025,6.385,6.385,0,0,1-2.7-.539,4.384,4.384,0,0,1-1.834-1.506,3.629,3.629,0,0,1-.662-2.092h2.168a2.245,2.245,0,0,0,.873,1.729,3.387,3.387,0,0,0,2.15.639,3.5,3.5,0,0,0,1.975-.5A1.53,1.53,0,0,0,422.273,19.637Zm16.3-4.242a10.58,10.58,0,0,1-4.213-2.045,3.907,3.907,0,0,1-1.318-2.994,4.127,4.127,0,0,1,1.611-3.334A6.4,6.4,0,0,1,438.844,5.7a6.99,6.99,0,0,1,3.135.68,5.154,5.154,0,0,1,2.133,1.875,4.8,4.8,0,0,1,.756,2.613h-2.262a3.12,3.12,0,0,0-.984-2.44,4,4,0,0,0-2.777-.888,4.1,4.1,0,0,0-2.6.734,2.448,2.448,0,0,0-.932,2.037,2.2,2.2,0,0,0,.885,1.767,8.678,8.678,0,0,0,3.012,1.321,13.974,13.974,0,0,1,3.328,1.319,5.05,5.05,0,0,1,1.781,1.682,4.292,4.292,0,0,1,.58,2.262,3.987,3.987,0,0,1-1.617,3.322,6.9,6.9,0,0,1-4.324,1.248,8.02,8.02,0,0,1-3.281-.674,5.522,5.522,0,0,1-2.35-1.846,4.5,4.5,0,0,1-.826-2.66h2.262a2.939,2.939,0,0,0,1.143,2.443,4.811,4.811,0,0,0,3.053.9,4.423,4.423,0,0,0,2.73-.727,2.36,2.36,0,0,0,.949-1.98,2.317,2.317,0,0,0-.879-1.939A10.133,10.133,0,0,0,438.574,15.395Zm16.7,6.352a4.6,4.6,0,0,1-3.715,1.488,3.942,3.942,0,0,1-3.088-1.178A5.1,5.1,0,0,1,447.4,18.57V10.32h2.168v8.191q0,2.883,2.344,2.883a3.245,3.245,0,0,0,3.3-1.852V10.32h2.168V23H455.32Zm10.488-.281a3.123,3.123,0,0,0,2.027-.7A2.474,2.474,0,0,0,468.75,19H470.8a3.931,3.931,0,0,1-.75,2.074,4.94,4.94,0,0,1-1.846,1.57,5.326,5.326,0,0,1-2.443.586,5.223,5.223,0,0,1-4.119-1.729,6.884,6.884,0,0,1-1.529-4.729v-.363a7.634,7.634,0,0,1,.68-3.293,5.177,5.177,0,0,1,1.951-2.238,5.543,5.543,0,0,1,3.006-.8,5.085,5.085,0,0,1,3.545,1.277A4.565,4.565,0,0,1,470.8,14.68H468.75a2.988,2.988,0,0,0-.932-2.021,2.9,2.9,0,0,0-2.068-.791,3.034,3.034,0,0,0-2.561,1.189,5.586,5.586,0,0,0-.908,3.439v.41a5.475,5.475,0,0,0,.9,3.375A3.049,3.049,0,0,0,465.762,21.465Zm9.645-9.609a4.609,4.609,0,0,1,3.75-1.77q4.02,0,4.055,4.535V23h-2.168V14.609a2.919,2.919,0,0,0-.627-2.027,2.512,2.512,0,0,0-1.916-.656,3.129,3.129,0,0,0-1.852.563,3.82,3.82,0,0,0-1.242,1.477V23h-2.168V5h2.168Zm15.234,8.2,3.141-9.738H496L491.449,23H489.8L485.2,10.32h2.215Zm6.691-3.516a7.489,7.489,0,0,1,.732-3.352,5.464,5.464,0,0,1,2.039-2.3,5.551,5.551,0,0,1,2.982-.809,5.347,5.347,0,0,1,4.189,1.793,6.9,6.9,0,0,1,1.6,4.77V16.8a7.555,7.555,0,0,1-.709,3.322,5.383,5.383,0,0,1-2.027,2.291,5.614,5.614,0,0,1-3.029.82,5.334,5.334,0,0,1-4.178-1.793,6.863,6.863,0,0,1-1.6-4.746Zm2.18.258a5.424,5.424,0,0,0,.979,3.387,3.316,3.316,0,0,0,5.244-.018,5.932,5.932,0,0,0,.973-3.627,5.415,5.415,0,0,0-.99-3.381,3.148,3.148,0,0,0-2.631-1.295,3.113,3.113,0,0,0-2.59,1.277A5.888,5.888,0,0,0,499.512,16.8ZM513.949,23h-2.168V5h2.168Zm11.3-1.254a4.6,4.6,0,0,1-3.715,1.488,3.942,3.942,0,0,1-3.088-1.178,5.1,5.1,0,0,1-1.072-3.486V10.32h2.168v8.191q0,2.883,2.344,2.883a3.245,3.245,0,0,0,3.3-1.852V10.32h2.168V23h-2.062Zm7.441-11.426.059,1.406a4.683,4.683,0,0,1,3.762-1.641,3.625,3.625,0,0,1,3.621,2.039,4.8,4.8,0,0,1,1.646-1.477,4.863,4.863,0,0,1,2.4-.562q4.172,0,4.242,4.418V23h-2.168V14.633a2.911,2.911,0,0,0-.621-2.033,2.735,2.735,0,0,0-2.086-.674,2.875,2.875,0,0,0-2,.721,2.924,2.924,0,0,0-.926,1.939V23h-2.18V14.691q0-2.766-2.707-2.766a2.9,2.9,0,0,0-2.918,1.816V23h-2.168V10.32Zm24.258,12.914a5.54,5.54,0,0,1-4.2-1.693,6.285,6.285,0,0,1-1.617-4.529v-.4a7.609,7.609,0,0,1,.721-3.369,5.622,5.622,0,0,1,2.016-2.32,5.068,5.068,0,0,1,2.807-.838,4.749,4.749,0,0,1,3.844,1.629,7.053,7.053,0,0,1,1.371,4.664v.9H553.3a4.507,4.507,0,0,0,1.1,3.029,3.444,3.444,0,0,0,2.666,1.154A3.776,3.776,0,0,0,559.008,21a4.888,4.888,0,0,0,1.395-1.242l1.324,1.031A5.325,5.325,0,0,1,556.945,23.234Zm-.27-11.367a2.892,2.892,0,0,0-2.2.955,4.642,4.642,0,0,0-1.1,2.678h6.352v-.164a4.129,4.129,0,0,0-.891-2.561A2.723,2.723,0,0,0,556.676,11.867Zm9.773-1.547.07,1.594a4.621,4.621,0,0,1,3.8-1.828q4.02,0,4.055,4.535V23H572.2V14.609a2.919,2.919,0,0,0-.627-2.027,2.512,2.512,0,0,0-1.916-.656,3.129,3.129,0,0,0-1.852.563,3.82,3.82,0,0,0-1.242,1.477V23H564.4V10.32Z" transform="translate(16 728) rotate(-90)" fill="#bbb"/><g transform="translate(16)"><path d="M70.564,18.2l8.559,3.459v2.68L67.939,19.152v-2l11.184-5.168v2.68Zm24.1-2.324h-11.4v-2.2h11.4Zm0,5.674h-11.4V19.357h11.4ZM106.521,27h-2.543V10.143l-5.1,1.873v-2.3L106.125,7h.4Zm19.893-8.49q0,4.443-1.518,6.6a6.306,6.306,0,0,1-9.461.048q-1.531-2.112-1.586-6.31V15.475q0-4.389,1.518-6.521a6.419,6.419,0,0,1,9.488-.075q1.518,2.058,1.559,6.351Zm-2.529-3.459a9.268,9.268,0,0,0-.9-4.683,3.106,3.106,0,0,0-2.857-1.47,3.065,3.065,0,0,0-2.83,1.463,9.049,9.049,0,0,0-.916,4.5v4.047a9.417,9.417,0,0,0,.937,4.765,3.1,3.1,0,0,0,2.837,1.538,3.057,3.057,0,0,0,2.782-1.449,9.076,9.076,0,0,0,.95-4.566Z" transform="translate(141 164)" fill="#111"/><path d="M26.92,27H24.377V10.143l-5.1,1.873v-2.3L26.523,7h.4Zm7.725-1.326a1.584,1.584,0,0,1,.39-1.094,1.485,1.485,0,0,1,1.169-.437,1.529,1.529,0,0,1,1.183.438,1.552,1.552,0,0,1,.4,1.094,1.468,1.468,0,0,1-.4,1.053,1.557,1.557,0,0,1-1.183.424,1.406,1.406,0,0,1-1.559-1.477ZM54.182,18.51q0,4.443-1.518,6.6a5.4,5.4,0,0,1-4.744,2.16A5.437,5.437,0,0,1,43.2,25.161q-1.531-2.112-1.586-6.31V15.475q0-4.389,1.518-6.521A5.439,5.439,0,0,1,47.893,6.82a5.488,5.488,0,0,1,4.73,2.058q1.518,2.058,1.559,6.351Zm-2.529-3.459a9.268,9.268,0,0,0-.9-4.683A3.106,3.106,0,0,0,47.893,8.9a3.065,3.065,0,0,0-2.83,1.463,9.049,9.049,0,0,0-.916,4.5v4.047a9.417,9.417,0,0,0,.937,4.765,3.1,3.1,0,0,0,2.837,1.538A3.057,3.057,0,0,0,50.7,23.76a9.076,9.076,0,0,0,.95-4.566ZM69.9,18.51q0,4.443-1.518,6.6a5.4,5.4,0,0,1-4.744,2.16,5.437,5.437,0,0,1-4.717-2.112q-1.531-2.112-1.586-6.31V15.475q0-4.389,1.518-6.521A5.439,5.439,0,0,1,63.615,6.82a5.488,5.488,0,0,1,4.73,2.058q1.518,2.058,1.559,6.351Zm-2.529-3.459a9.268,9.268,0,0,0-.9-4.683A3.106,3.106,0,0,0,63.615,8.9a3.065,3.065,0,0,0-2.83,1.463,9.049,9.049,0,0,0-.916,4.5v4.047a9.417,9.417,0,0,0,.937,4.765,3.1,3.1,0,0,0,2.837,1.538,3.057,3.057,0,0,0,2.782-1.449,9.076,9.076,0,0,0,.95-4.566ZM81.457,27H78.914V10.143l-5.1,1.873v-2.3L81.061,7h.4Zm27.125-7.232a8.8,8.8,0,0,1-1.559,5.448,4.98,4.98,0,0,1-4.184,2.058,5.157,5.157,0,0,1-4.334-1.982L98.383,27H96.059V6h2.529v7.834a5.128,5.128,0,0,1,4.225-1.9,5.01,5.01,0,0,1,4.231,2.037,9.06,9.06,0,0,1,1.538,5.578Zm-2.529-.287a6.835,6.835,0,0,0-1-3.992,3.3,3.3,0,0,0-2.871-1.408,3.713,3.713,0,0,0-3.6,2.324v6.4a3.817,3.817,0,0,0,3.623,2.324,3.286,3.286,0,0,0,2.83-1.408A7.268,7.268,0,0,0,106.053,19.48ZM114.516,27h-2.529V12.207h2.529ZM111.781,8.283a1.51,1.51,0,0,1,.376-1.039,1.412,1.412,0,0,1,1.114-.424,1.434,1.434,0,0,1,1.121.424,1.494,1.494,0,0,1,.383,1.039,1.445,1.445,0,0,1-.383,1.025,1.46,1.46,0,0,1-1.121.41,1.437,1.437,0,0,1-1.114-.41A1.46,1.46,0,0,1,111.781,8.283Zm15.395,14.793a1.862,1.862,0,0,0-.772-1.593,7.435,7.435,0,0,0-2.693-.978,12.734,12.734,0,0,1-3.049-.984,4.337,4.337,0,0,1-1.668-1.367,3.27,3.27,0,0,1-.54-1.887,3.837,3.837,0,0,1,1.538-3.076,6.007,6.007,0,0,1,3.931-1.258,6.181,6.181,0,0,1,4.081,1.3,4.125,4.125,0,0,1,1.565,3.322h-2.543a2.283,2.283,0,0,0-.882-1.791,3.3,3.3,0,0,0-2.222-.752,3.458,3.458,0,0,0-2.16.6,1.894,1.894,0,0,0-.779,1.572,1.534,1.534,0,0,0,.725,1.381,8.915,8.915,0,0,0,2.618.889,13.642,13.642,0,0,1,3.069,1.012,4.477,4.477,0,0,1,1.743,1.415,3.479,3.479,0,0,1,.567,2.017,3.786,3.786,0,0,1-1.586,3.179,6.652,6.652,0,0,1-4.115,1.2,7.449,7.449,0,0,1-3.145-.629,5.114,5.114,0,0,1-2.14-1.757,4.234,4.234,0,0,1-.772-2.44h2.529a2.619,2.619,0,0,0,1.019,2.017,3.951,3.951,0,0,0,2.509.745,4.079,4.079,0,0,0,2.3-.581A1.785,1.785,0,0,0,127.176,23.076ZM147.984,27h-2.543V10.143l-5.1,1.873v-2.3L147.588,7h.4Zm19.893-8.49q0,4.443-1.518,6.6a6.306,6.306,0,0,1-9.461.048q-1.531-2.112-1.586-6.31V15.475q0-4.389,1.518-6.521a6.419,6.419,0,0,1,9.488-.075q1.518,2.058,1.559,6.351Zm-2.529-3.459a9.268,9.268,0,0,0-.9-4.683,3.106,3.106,0,0,0-2.857-1.47,3.065,3.065,0,0,0-2.83,1.463,9.049,9.049,0,0,0-.916,4.5v4.047a9.417,9.417,0,0,0,.937,4.765,3.1,3.1,0,0,0,2.837,1.538A3.057,3.057,0,0,0,164.4,23.76a9.076,9.076,0,0,0,.95-4.566Zm6.084,10.623a1.584,1.584,0,0,1,.39-1.094,1.485,1.485,0,0,1,1.169-.437,1.529,1.529,0,0,1,1.183.438,1.552,1.552,0,0,1,.4,1.094,1.468,1.468,0,0,1-.4,1.053,1.557,1.557,0,0,1-1.183.424,1.406,1.406,0,0,1-1.559-1.477Zm19.537-7.164q0,4.443-1.518,6.6a6.306,6.306,0,0,1-9.461.048q-1.531-2.112-1.586-6.31V15.475q0-4.389,1.518-6.521a6.419,6.419,0,0,1,9.488-.075q1.518,2.058,1.559,6.351Zm-2.529-3.459a9.268,9.268,0,0,0-.9-4.683A3.106,3.106,0,0,0,184.68,8.9a3.065,3.065,0,0,0-2.83,1.463,9.049,9.049,0,0,0-.916,4.5v4.047a9.417,9.417,0,0,0,.937,4.765,3.1,3.1,0,0,0,2.837,1.538,3.057,3.057,0,0,0,2.782-1.449,9.076,9.076,0,0,0,.95-4.566Zm18.252,3.459q0,4.443-1.518,6.6a6.306,6.306,0,0,1-9.461.048q-1.531-2.112-1.586-6.31V15.475q0-4.389,1.518-6.521a6.419,6.419,0,0,1,9.488-.075q1.518,2.058,1.559,6.351Zm-2.529-3.459a9.268,9.268,0,0,0-.9-4.683A3.106,3.106,0,0,0,200.4,8.9a3.065,3.065,0,0,0-2.83,1.463,9.049,9.049,0,0,0-.916,4.5v4.047a9.417,9.417,0,0,0,.937,4.765,3.1,3.1,0,0,0,2.837,1.538,3.057,3.057,0,0,0,2.782-1.449,9.076,9.076,0,0,0,.95-4.566Zm18.252,3.459q0,4.443-1.518,6.6a6.306,6.306,0,0,1-9.461.048q-1.531-2.112-1.586-6.31V15.475q0-4.389,1.518-6.521a6.419,6.419,0,0,1,9.488-.075q1.518,2.058,1.559,6.351Zm-2.529-3.459a9.268,9.268,0,0,0-.9-4.683,3.106,3.106,0,0,0-2.857-1.47,3.065,3.065,0,0,0-2.83,1.463,9.049,9.049,0,0,0-.916,4.5v4.047a9.417,9.417,0,0,0,.937,4.765,3.1,3.1,0,0,0,2.837,1.538,3.057,3.057,0,0,0,2.782-1.449,9.076,9.076,0,0,0,.95-4.566Z" transform="translate(45 432)" fill="#111"/><path d="M72.549,27H70.006V10.143l-5.1,1.873v-2.3L72.152,7h.4Zm15.723,0H85.729V10.143l-5.1,1.873v-2.3L87.875,7h.4ZM115.4,19.768a8.8,8.8,0,0,1-1.559,5.448,4.98,4.98,0,0,1-4.184,2.058,5.157,5.157,0,0,1-4.334-1.982L105.2,27h-2.324V6H105.4v7.834a5.128,5.128,0,0,1,4.225-1.9,5.01,5.01,0,0,1,4.231,2.037,9.06,9.06,0,0,1,1.538,5.578Zm-2.529-.287a6.835,6.835,0,0,0-1-3.992A3.3,3.3,0,0,0,109,14.08a3.713,3.713,0,0,0-3.6,2.324v6.4a3.817,3.817,0,0,0,3.623,2.324,3.286,3.286,0,0,0,2.83-1.408A7.268,7.268,0,0,0,112.867,19.48ZM121.33,27H118.8V12.207h2.529ZM118.6,8.283a1.51,1.51,0,0,1,.376-1.039,1.412,1.412,0,0,1,1.114-.424,1.434,1.434,0,0,1,1.121.424,1.494,1.494,0,0,1,.383,1.039,1.445,1.445,0,0,1-.383,1.025,1.46,1.46,0,0,1-1.121.41,1.437,1.437,0,0,1-1.114-.41A1.46,1.46,0,0,1,118.6,8.283ZM133.99,23.076a1.862,1.862,0,0,0-.772-1.593,7.435,7.435,0,0,0-2.693-.978,12.734,12.734,0,0,1-3.049-.984,4.337,4.337,0,0,1-1.668-1.367,3.27,3.27,0,0,1-.54-1.887,3.837,3.837,0,0,1,1.538-3.076,6.007,6.007,0,0,1,3.931-1.258,6.181,6.181,0,0,1,4.081,1.3,4.125,4.125,0,0,1,1.565,3.322H133.84a2.283,2.283,0,0,0-.882-1.791,3.3,3.3,0,0,0-2.222-.752,3.458,3.458,0,0,0-2.16.6,1.894,1.894,0,0,0-.779,1.572,1.534,1.534,0,0,0,.725,1.381,8.915,8.915,0,0,0,2.618.889,13.642,13.642,0,0,1,3.069,1.012,4.477,4.477,0,0,1,1.743,1.415,3.479,3.479,0,0,1,.567,2.017,3.786,3.786,0,0,1-1.586,3.179,6.652,6.652,0,0,1-4.115,1.2,7.449,7.449,0,0,1-3.145-.629,5.114,5.114,0,0,1-2.14-1.757,4.234,4.234,0,0,1-.772-2.44h2.529a2.619,2.619,0,0,0,1.019,2.017,3.951,3.951,0,0,0,2.509.745,4.079,4.079,0,0,0,2.3-.581A1.785,1.785,0,0,0,133.99,23.076ZM154.8,27h-2.543V10.143l-5.1,1.873v-2.3L154.4,7h.4Zm19.893-8.49q0,4.443-1.518,6.6a6.306,6.306,0,0,1-9.461.048q-1.531-2.112-1.586-6.31V15.475q0-4.389,1.518-6.521a6.419,6.419,0,0,1,9.488-.075q1.518,2.058,1.559,6.351Zm-2.529-3.459a9.268,9.268,0,0,0-.9-4.683A3.106,3.106,0,0,0,168.4,8.9a3.065,3.065,0,0,0-2.83,1.463,9.049,9.049,0,0,0-.916,4.5v4.047a9.417,9.417,0,0,0,.937,4.765,3.1,3.1,0,0,0,2.837,1.538,3.057,3.057,0,0,0,2.782-1.449,9.076,9.076,0,0,0,.95-4.566Zm18.252,3.459q0,4.443-1.518,6.6a6.306,6.306,0,0,1-9.461.048q-1.531-2.112-1.586-6.31V15.475q0-4.389,1.518-6.521a6.419,6.419,0,0,1,9.488-.075q1.518,2.058,1.559,6.351Zm-2.529-3.459a9.268,9.268,0,0,0-.9-4.683,3.106,3.106,0,0,0-2.857-1.47,3.065,3.065,0,0,0-2.83,1.463,9.049,9.049,0,0,0-.916,4.5v4.047a9.417,9.417,0,0,0,.937,4.765,3.1,3.1,0,0,0,2.837,1.538,3.057,3.057,0,0,0,2.782-1.449,9.076,9.076,0,0,0,.95-4.566Z" transform="translate(77 251)" fill="#111"/><path d="M11.475,27H8.932V10.143l-5.1,1.873v-2.3L11.078,7h.4Zm19.893-8.49q0,4.443-1.518,6.6a5.4,5.4,0,0,1-4.744,2.16,5.437,5.437,0,0,1-4.717-2.112q-1.531-2.112-1.586-6.31V15.475q0-4.389,1.518-6.521A5.439,5.439,0,0,1,25.078,6.82a5.488,5.488,0,0,1,4.73,2.058q1.518,2.058,1.559,6.351Zm-2.529-3.459a9.268,9.268,0,0,0-.9-4.683A3.106,3.106,0,0,0,25.078,8.9a3.065,3.065,0,0,0-2.83,1.463,9.049,9.049,0,0,0-.916,4.5v4.047a9.417,9.417,0,0,0,.937,4.765,3.1,3.1,0,0,0,2.837,1.538,3.057,3.057,0,0,0,2.782-1.449,9.076,9.076,0,0,0,.95-4.566Zm6.084,10.623a1.584,1.584,0,0,1,.39-1.094,1.485,1.485,0,0,1,1.169-.437,1.529,1.529,0,0,1,1.183.438,1.552,1.552,0,0,1,.4,1.094,1.468,1.468,0,0,1-.4,1.053,1.557,1.557,0,0,1-1.183.424,1.406,1.406,0,0,1-1.559-1.477ZM54.459,18.51q0,4.443-1.518,6.6a5.4,5.4,0,0,1-4.744,2.16,5.437,5.437,0,0,1-4.717-2.112q-1.531-2.112-1.586-6.31V15.475q0-4.389,1.518-6.521A5.439,5.439,0,0,1,48.17,6.82,5.488,5.488,0,0,1,52.9,8.878q1.518,2.058,1.559,6.351ZM51.93,15.051a9.268,9.268,0,0,0-.9-4.683A3.106,3.106,0,0,0,48.17,8.9a3.065,3.065,0,0,0-2.83,1.463,9.049,9.049,0,0,0-.916,4.5v4.047a9.417,9.417,0,0,0,.937,4.765A3.1,3.1,0,0,0,48.2,25.209a3.057,3.057,0,0,0,2.782-1.449,9.076,9.076,0,0,0,.95-4.566ZM70.182,18.51q0,4.443-1.518,6.6a5.4,5.4,0,0,1-4.744,2.16A5.437,5.437,0,0,1,59.2,25.161q-1.531-2.112-1.586-6.31V15.475q0-4.389,1.518-6.521A5.439,5.439,0,0,1,63.893,6.82a5.488,5.488,0,0,1,4.73,2.058q1.518,2.058,1.559,6.351Zm-2.529-3.459a9.268,9.268,0,0,0-.9-4.683A3.106,3.106,0,0,0,63.893,8.9a3.065,3.065,0,0,0-2.83,1.463,9.049,9.049,0,0,0-.916,4.5v4.047a9.417,9.417,0,0,0,.937,4.765,3.1,3.1,0,0,0,2.837,1.538A3.057,3.057,0,0,0,66.7,23.76a9.076,9.076,0,0,0,.95-4.566ZM81.734,27H79.191V10.143l-5.1,1.873v-2.3L81.338,7h.4Zm27.125-7.232a8.8,8.8,0,0,1-1.559,5.448,4.98,4.98,0,0,1-4.184,2.058,5.157,5.157,0,0,1-4.334-1.982L98.66,27H96.336V6h2.529v7.834a5.128,5.128,0,0,1,4.225-1.9,5.01,5.01,0,0,1,4.231,2.037,9.06,9.06,0,0,1,1.538,5.578Zm-2.529-.287a6.835,6.835,0,0,0-1-3.992,3.3,3.3,0,0,0-2.871-1.408,3.713,3.713,0,0,0-3.6,2.324v6.4a3.817,3.817,0,0,0,3.623,2.324,3.286,3.286,0,0,0,2.83-1.408A7.268,7.268,0,0,0,106.33,19.48ZM114.793,27h-2.529V12.207h2.529ZM112.059,8.283a1.51,1.51,0,0,1,.376-1.039,1.412,1.412,0,0,1,1.114-.424,1.434,1.434,0,0,1,1.121.424,1.494,1.494,0,0,1,.383,1.039,1.445,1.445,0,0,1-.383,1.025,1.46,1.46,0,0,1-1.121.41,1.437,1.437,0,0,1-1.114-.41A1.46,1.46,0,0,1,112.059,8.283Zm15.395,14.793a1.862,1.862,0,0,0-.772-1.593,7.435,7.435,0,0,0-2.693-.978,12.734,12.734,0,0,1-3.049-.984,4.337,4.337,0,0,1-1.668-1.367,3.27,3.27,0,0,1-.54-1.887,3.837,3.837,0,0,1,1.538-3.076,6.007,6.007,0,0,1,3.931-1.258,6.181,6.181,0,0,1,4.081,1.3,4.125,4.125,0,0,1,1.565,3.322H127.3a2.283,2.283,0,0,0-.882-1.791,3.3,3.3,0,0,0-2.222-.752,3.458,3.458,0,0,0-2.16.6,1.894,1.894,0,0,0-.779,1.572,1.534,1.534,0,0,0,.725,1.381,8.915,8.915,0,0,0,2.618.889,13.642,13.642,0,0,1,3.069,1.012,4.477,4.477,0,0,1,1.743,1.415,3.479,3.479,0,0,1,.567,2.017,3.786,3.786,0,0,1-1.586,3.179,6.652,6.652,0,0,1-4.115,1.2,7.449,7.449,0,0,1-3.145-.629A5.114,5.114,0,0,1,119,24.888a4.234,4.234,0,0,1-.772-2.44h2.529a2.619,2.619,0,0,0,1.019,2.017,3.951,3.951,0,0,0,2.509.745,4.079,4.079,0,0,0,2.3-.581A1.785,1.785,0,0,0,127.453,23.076ZM148.262,27h-2.543V10.143l-5.1,1.873v-2.3L147.865,7h.4Zm19.893-8.49q0,4.443-1.518,6.6a6.306,6.306,0,0,1-9.461.048q-1.531-2.112-1.586-6.31V15.475q0-4.389,1.518-6.521a6.419,6.419,0,0,1,9.488-.075q1.518,2.058,1.559,6.351Zm-2.529-3.459a9.268,9.268,0,0,0-.9-4.683,3.106,3.106,0,0,0-2.857-1.47,3.065,3.065,0,0,0-2.83,1.463,9.049,9.049,0,0,0-.916,4.5v4.047a9.417,9.417,0,0,0,.937,4.765,3.1,3.1,0,0,0,2.837,1.538,3.057,3.057,0,0,0,2.782-1.449,9.076,9.076,0,0,0,.95-4.566Zm18.252,3.459q0,4.443-1.518,6.6a6.306,6.306,0,0,1-9.461.048q-1.531-2.112-1.586-6.31V15.475q0-4.389,1.518-6.521a6.419,6.419,0,0,1,9.488-.075q1.518,2.058,1.559,6.351Zm-2.529-3.459a9.268,9.268,0,0,0-.9-4.683,3.106,3.106,0,0,0-2.857-1.47,3.065,3.065,0,0,0-2.83,1.463,9.049,9.049,0,0,0-.916,4.5v4.047a9.417,9.417,0,0,0,.937,4.765,3.1,3.1,0,0,0,2.837,1.538A3.057,3.057,0,0,0,180.4,23.76a9.076,9.076,0,0,0,.95-4.566Zm6.084,10.623a1.584,1.584,0,0,1,.39-1.094,1.485,1.485,0,0,1,1.169-.437,1.529,1.529,0,0,1,1.183.438,1.552,1.552,0,0,1,.4,1.094,1.468,1.468,0,0,1-.4,1.053,1.557,1.557,0,0,1-1.183.424,1.406,1.406,0,0,1-1.559-1.477Zm19.537-7.164q0,4.443-1.518,6.6a6.306,6.306,0,0,1-9.461.048q-1.531-2.112-1.586-6.31V15.475q0-4.389,1.518-6.521a6.419,6.419,0,0,1,9.488-.075q1.518,2.058,1.559,6.351Zm-2.529-3.459a9.268,9.268,0,0,0-.9-4.683A3.106,3.106,0,0,0,200.68,8.9a3.065,3.065,0,0,0-2.83,1.463,9.049,9.049,0,0,0-.916,4.5v4.047a9.417,9.417,0,0,0,.937,4.765,3.1,3.1,0,0,0,2.837,1.538,3.057,3.057,0,0,0,2.782-1.449,9.076,9.076,0,0,0,.95-4.566Zm18.252,3.459q0,4.443-1.518,6.6a6.306,6.306,0,0,1-9.461.048q-1.531-2.112-1.586-6.31V15.475q0-4.389,1.518-6.521a6.419,6.419,0,0,1,9.488-.075q1.518,2.058,1.559,6.351Zm-2.529-3.459a9.268,9.268,0,0,0-.9-4.683A3.106,3.106,0,0,0,216.4,8.9a3.065,3.065,0,0,0-2.83,1.463,9.049,9.049,0,0,0-.916,4.5v4.047a9.417,9.417,0,0,0,.937,4.765,3.1,3.1,0,0,0,2.837,1.538,3.057,3.057,0,0,0,2.782-1.449,9.076,9.076,0,0,0,.95-4.566Zm18.252,3.459q0,4.443-1.518,6.6a6.306,6.306,0,0,1-9.461.048q-1.531-2.112-1.586-6.31V15.475q0-4.389,1.518-6.521a6.419,6.419,0,0,1,9.488-.075q1.518,2.058,1.559,6.351Zm-2.529-3.459a9.268,9.268,0,0,0-.9-4.683,3.106,3.106,0,0,0-2.857-1.47,3.065,3.065,0,0,0-2.83,1.463,9.049,9.049,0,0,0-.916,4.5v4.047a9.417,9.417,0,0,0,.937,4.765,3.1,3.1,0,0,0,2.837,1.538,3.057,3.057,0,0,0,2.782-1.449,9.076,9.076,0,0,0,.95-4.566Z" transform="translate(29 519)" fill="#111"/><path d="M33.734,27H31.191V10.143l-5.1,1.873v-2.3L33.338,7h.4Zm19.893-8.49q0,4.443-1.518,6.6a5.4,5.4,0,0,1-4.744,2.16,5.437,5.437,0,0,1-4.717-2.112q-1.531-2.112-1.586-6.31V15.475q0-4.389,1.518-6.521A5.439,5.439,0,0,1,47.338,6.82a5.488,5.488,0,0,1,4.73,2.058q1.518,2.058,1.559,6.351ZM51.1,15.051a9.268,9.268,0,0,0-.9-4.683A3.106,3.106,0,0,0,47.338,8.9a3.065,3.065,0,0,0-2.83,1.463,9.049,9.049,0,0,0-.916,4.5v4.047a9.417,9.417,0,0,0,.937,4.765,3.1,3.1,0,0,0,2.837,1.538,3.057,3.057,0,0,0,2.782-1.449,9.076,9.076,0,0,0,.95-4.566ZM65.18,27H62.637V10.143l-5.1,1.873v-2.3L64.783,7h.4ZM92.3,19.768a8.8,8.8,0,0,1-1.559,5.448,4.98,4.98,0,0,1-4.184,2.058,5.157,5.157,0,0,1-4.334-1.982L82.105,27H79.781V6h2.529v7.834a5.128,5.128,0,0,1,4.225-1.9,5.01,5.01,0,0,1,4.231,2.037A9.06,9.06,0,0,1,92.3,19.549Zm-2.529-.287a6.835,6.835,0,0,0-1-3.992,3.3,3.3,0,0,0-2.871-1.408,3.713,3.713,0,0,0-3.6,2.324v6.4a3.817,3.817,0,0,0,3.623,2.324,3.286,3.286,0,0,0,2.83-1.408A7.268,7.268,0,0,0,89.775,19.48ZM98.238,27H95.709V12.207h2.529ZM95.5,8.283a1.51,1.51,0,0,1,.376-1.039,1.412,1.412,0,0,1,1.114-.424,1.434,1.434,0,0,1,1.121.424A1.494,1.494,0,0,1,98.5,8.283a1.445,1.445,0,0,1-.383,1.025,1.46,1.46,0,0,1-1.121.41,1.437,1.437,0,0,1-1.114-.41A1.46,1.46,0,0,1,95.5,8.283ZM110.9,23.076a1.862,1.862,0,0,0-.772-1.593,7.435,7.435,0,0,0-2.693-.978,12.734,12.734,0,0,1-3.049-.984,4.337,4.337,0,0,1-1.668-1.367,3.27,3.27,0,0,1-.54-1.887,3.837,3.837,0,0,1,1.538-3.076,6.007,6.007,0,0,1,3.931-1.258,6.181,6.181,0,0,1,4.081,1.3,4.125,4.125,0,0,1,1.565,3.322h-2.543a2.283,2.283,0,0,0-.882-1.791,3.3,3.3,0,0,0-2.222-.752,3.458,3.458,0,0,0-2.16.6,1.894,1.894,0,0,0-.779,1.572,1.534,1.534,0,0,0,.725,1.381,8.915,8.915,0,0,0,2.618.889,13.642,13.642,0,0,1,3.069,1.012,4.477,4.477,0,0,1,1.743,1.415,3.479,3.479,0,0,1,.567,2.017,3.786,3.786,0,0,1-1.586,3.179,6.652,6.652,0,0,1-4.115,1.2,7.449,7.449,0,0,1-3.145-.629,5.114,5.114,0,0,1-2.14-1.757,4.234,4.234,0,0,1-.772-2.44H104.2a2.619,2.619,0,0,0,1.019,2.017,3.951,3.951,0,0,0,2.509.745,4.079,4.079,0,0,0,2.3-.581A1.785,1.785,0,0,0,110.9,23.076ZM131.707,27h-2.543V10.143l-5.1,1.873v-2.3L131.311,7h.4Zm7.725-1.326a1.584,1.584,0,0,1,.39-1.094,1.485,1.485,0,0,1,1.169-.437,1.529,1.529,0,0,1,1.183.438,1.552,1.552,0,0,1,.4,1.094,1.468,1.468,0,0,1-.4,1.053,1.557,1.557,0,0,1-1.183.424,1.406,1.406,0,0,1-1.559-1.477Zm19.537-7.164q0,4.443-1.518,6.6a6.306,6.306,0,0,1-9.461.048q-1.531-2.112-1.586-6.31V15.475q0-4.389,1.518-6.521a6.419,6.419,0,0,1,9.488-.075q1.518,2.058,1.559,6.351Zm-2.529-3.459a9.268,9.268,0,0,0-.9-4.683A3.106,3.106,0,0,0,152.68,8.9a3.065,3.065,0,0,0-2.83,1.463,9.049,9.049,0,0,0-.916,4.5v4.047a9.417,9.417,0,0,0,.937,4.765,3.1,3.1,0,0,0,2.837,1.538,3.057,3.057,0,0,0,2.782-1.449,9.076,9.076,0,0,0,.95-4.566Zm18.252,3.459q0,4.443-1.518,6.6a6.306,6.306,0,0,1-9.461.048q-1.531-2.112-1.586-6.31V15.475q0-4.389,1.518-6.521a6.419,6.419,0,0,1,9.488-.075q1.518,2.058,1.559,6.351Zm-2.529-3.459a9.268,9.268,0,0,0-.9-4.683A3.106,3.106,0,0,0,168.4,8.9a3.065,3.065,0,0,0-2.83,1.463,9.049,9.049,0,0,0-.916,4.5v4.047a9.417,9.417,0,0,0,.937,4.765,3.1,3.1,0,0,0,2.837,1.538,3.057,3.057,0,0,0,2.782-1.449,9.076,9.076,0,0,0,.95-4.566Zm18.252,3.459q0,4.443-1.518,6.6a6.306,6.306,0,0,1-9.461.048q-1.531-2.112-1.586-6.31V15.475q0-4.389,1.518-6.521a6.419,6.419,0,0,1,9.488-.075q1.518,2.058,1.559,6.351Zm-2.529-3.459a9.268,9.268,0,0,0-.9-4.683,3.106,3.106,0,0,0-2.857-1.47,3.065,3.065,0,0,0-2.83,1.463,9.049,9.049,0,0,0-.916,4.5v4.047a9.417,9.417,0,0,0,.937,4.765,3.1,3.1,0,0,0,2.837,1.538,3.057,3.057,0,0,0,2.782-1.449,9.076,9.076,0,0,0,.95-4.566Z" transform="translate(77 338)" fill="#111"/><path d="M17.289,27H14.746V10.143l-5.1,1.873v-2.3L16.893,7h.4Zm19.893-8.49q0,4.443-1.518,6.6a5.4,5.4,0,0,1-4.744,2.16A5.437,5.437,0,0,1,26.2,25.161q-1.531-2.112-1.586-6.31V15.475q0-4.389,1.518-6.521A5.439,5.439,0,0,1,30.893,6.82a5.488,5.488,0,0,1,4.73,2.058q1.518,2.058,1.559,6.351Zm-2.529-3.459a9.268,9.268,0,0,0-.9-4.683A3.106,3.106,0,0,0,30.893,8.9a3.065,3.065,0,0,0-2.83,1.463,9.049,9.049,0,0,0-.916,4.5v4.047a9.417,9.417,0,0,0,.937,4.765,3.1,3.1,0,0,0,2.837,1.538A3.057,3.057,0,0,0,33.7,23.76a9.076,9.076,0,0,0,.95-4.566ZM52.9,18.51q0,4.443-1.518,6.6a5.4,5.4,0,0,1-4.744,2.16,5.437,5.437,0,0,1-4.717-2.112q-1.531-2.112-1.586-6.31V15.475q0-4.389,1.518-6.521A5.439,5.439,0,0,1,46.615,6.82a5.488,5.488,0,0,1,4.73,2.058q1.518,2.058,1.559,6.351Zm-2.529-3.459a9.268,9.268,0,0,0-.9-4.683A3.106,3.106,0,0,0,46.615,8.9a3.065,3.065,0,0,0-2.83,1.463,9.049,9.049,0,0,0-.916,4.5v4.047a9.417,9.417,0,0,0,.937,4.765,3.1,3.1,0,0,0,2.837,1.538,3.057,3.057,0,0,0,2.782-1.449,9.076,9.076,0,0,0,.95-4.566Zm6.084,10.623a1.584,1.584,0,0,1,.39-1.094,1.485,1.485,0,0,1,1.169-.437,1.529,1.529,0,0,1,1.183.438,1.552,1.552,0,0,1,.4,1.094,1.468,1.468,0,0,1-.4,1.053,1.557,1.557,0,0,1-1.183.424,1.406,1.406,0,0,1-1.559-1.477ZM76,18.51q0,4.443-1.518,6.6a5.4,5.4,0,0,1-4.744,2.16,5.437,5.437,0,0,1-4.717-2.112q-1.531-2.112-1.586-6.31V15.475q0-4.389,1.518-6.521A5.439,5.439,0,0,1,69.707,6.82a5.488,5.488,0,0,1,4.73,2.058Q75.955,10.936,76,15.229Zm-2.529-3.459a9.268,9.268,0,0,0-.9-4.683A3.106,3.106,0,0,0,69.707,8.9a3.065,3.065,0,0,0-2.83,1.463,9.049,9.049,0,0,0-.916,4.5v4.047a9.417,9.417,0,0,0,.937,4.765,3.1,3.1,0,0,0,2.837,1.538,3.057,3.057,0,0,0,2.782-1.449,9.076,9.076,0,0,0,.95-4.566ZM91.719,18.51q0,4.443-1.518,6.6a6.306,6.306,0,0,1-9.461.048q-1.531-2.112-1.586-6.31V15.475q0-4.389,1.518-6.521A5.439,5.439,0,0,1,85.43,6.82a5.488,5.488,0,0,1,4.73,2.058q1.518,2.058,1.559,6.351Zm-2.529-3.459a9.268,9.268,0,0,0-.9-4.683A3.106,3.106,0,0,0,85.43,8.9a3.065,3.065,0,0,0-2.83,1.463,9.049,9.049,0,0,0-.916,4.5v4.047a9.417,9.417,0,0,0,.937,4.765,3.1,3.1,0,0,0,2.837,1.538,3.057,3.057,0,0,0,2.782-1.449,9.076,9.076,0,0,0,.95-4.566ZM103.271,27h-2.543V10.143l-5.1,1.873v-2.3L102.875,7h.4ZM130.4,19.768a8.8,8.8,0,0,1-1.559,5.448,4.98,4.98,0,0,1-4.184,2.058,5.157,5.157,0,0,1-4.334-1.982L120.2,27h-2.324V6H120.4v7.834a5.128,5.128,0,0,1,4.225-1.9,5.01,5.01,0,0,1,4.231,2.037,9.06,9.06,0,0,1,1.538,5.578Zm-2.529-.287a6.835,6.835,0,0,0-1-3.992A3.3,3.3,0,0,0,124,14.08a3.713,3.713,0,0,0-3.6,2.324v6.4a3.817,3.817,0,0,0,3.623,2.324,3.286,3.286,0,0,0,2.83-1.408A7.268,7.268,0,0,0,127.867,19.48ZM136.33,27H133.8V12.207h2.529ZM133.6,8.283a1.51,1.51,0,0,1,.376-1.039,1.412,1.412,0,0,1,1.114-.424,1.434,1.434,0,0,1,1.121.424,1.494,1.494,0,0,1,.383,1.039,1.445,1.445,0,0,1-.383,1.025,1.46,1.46,0,0,1-1.121.41,1.437,1.437,0,0,1-1.114-.41A1.46,1.46,0,0,1,133.6,8.283ZM148.99,23.076a1.862,1.862,0,0,0-.772-1.593,7.435,7.435,0,0,0-2.693-.978,12.734,12.734,0,0,1-3.049-.984,4.337,4.337,0,0,1-1.668-1.367,3.27,3.27,0,0,1-.54-1.887,3.837,3.837,0,0,1,1.538-3.076,6.007,6.007,0,0,1,3.931-1.258,6.181,6.181,0,0,1,4.081,1.3,4.125,4.125,0,0,1,1.565,3.322H148.84a2.283,2.283,0,0,0-.882-1.791,3.3,3.3,0,0,0-2.222-.752,3.458,3.458,0,0,0-2.16.6,1.894,1.894,0,0,0-.779,1.572,1.534,1.534,0,0,0,.725,1.381,8.915,8.915,0,0,0,2.618.889,13.642,13.642,0,0,1,3.069,1.012,4.477,4.477,0,0,1,1.743,1.415,3.479,3.479,0,0,1,.567,2.017,3.786,3.786,0,0,1-1.586,3.179,6.652,6.652,0,0,1-4.115,1.2,7.449,7.449,0,0,1-3.145-.629,5.114,5.114,0,0,1-2.14-1.757,4.234,4.234,0,0,1-.772-2.44h2.529a2.619,2.619,0,0,0,1.019,2.017,3.951,3.951,0,0,0,2.509.745,4.079,4.079,0,0,0,2.3-.581A1.785,1.785,0,0,0,148.99,23.076ZM169.8,27h-2.543V10.143l-5.1,1.873v-2.3L169.4,7h.4ZM181.256,7.094l6.508,16.242,6.508-16.242h3.4V27h-2.625V19.248l.246-8.367L188.762,27h-2.01L180.23,10.922l.26,8.326V27h-2.625V7.094Z" transform="translate(69 606)" fill="#111"/><path d="M156.072,18.113l-9.037-3.541v-2.6l11.676,5.168v2L147.035,24.32V21.7ZM169.8,27h-2.543V10.143l-5.1,1.873v-2.3L169.4,7h.4ZM181.256,7.094l6.508,16.242,6.508-16.242h3.4V27h-2.625V19.248l.246-8.367L188.762,27h-2.01L180.23,10.922l.26,8.326V27h-2.625V7.094Z" transform="translate(69 693)" fill="#111"/></g><line x2="1360" transform="translate(0.5 776)" fill="none" stroke="#e3e3e3" stroke-width="2"/><g transform="translate(2)"><line y2="32" transform="translate(110 968)" fill="none" stroke="#e3e3e3" stroke-width="2"/><path d="M28.021,18.51q0,4.443-1.518,6.6a5.4,5.4,0,0,1-4.744,2.16,5.437,5.437,0,0,1-4.717-2.112q-1.531-2.112-1.586-6.31V15.475q0-4.389,1.518-6.521A5.439,5.439,0,0,1,21.732,6.82a5.488,5.488,0,0,1,4.73,2.058q1.518,2.058,1.559,6.351Zm-2.529-3.459a9.268,9.268,0,0,0-.9-4.683A3.106,3.106,0,0,0,21.732,8.9a3.065,3.065,0,0,0-2.83,1.463,9.049,9.049,0,0,0-.916,4.5v4.047a9.417,9.417,0,0,0,.937,4.765,3.1,3.1,0,0,0,2.837,1.538,3.057,3.057,0,0,0,2.782-1.449,9.076,9.076,0,0,0,.95-4.566Zm5.551-4.129a4.039,4.039,0,0,1,1.142-2.953,4.289,4.289,0,0,1,5.879.007A4.179,4.179,0,0,1,39.191,11v.971a3.987,3.987,0,0,1-1.142,2.946,3.936,3.936,0,0,1-2.905,1.142,4.022,4.022,0,0,1-2.939-1.142,4.071,4.071,0,0,1-1.162-3.042Zm1.887,1.047a2.587,2.587,0,0,0,.6,1.761,2.03,2.03,0,0,0,1.613.692,1.99,1.99,0,0,0,1.565-.671,2.672,2.672,0,0,0,.595-1.836v-1a2.652,2.652,0,0,0-.588-1.768,2.18,2.18,0,0,0-3.2,0,2.735,2.735,0,0,0-.588,1.823Zm7.807,10.15a4.016,4.016,0,0,1,1.142-2.946,4.318,4.318,0,0,1,5.872-.007A4.121,4.121,0,0,1,48.9,22.215v.971a4.016,4.016,0,0,1-1.142,2.946,3.928,3.928,0,0,1-2.919,1.155A4.022,4.022,0,0,1,41.9,26.146,4.071,4.071,0,0,1,40.736,23.1Zm1.887,1.061a2.607,2.607,0,0,0,.6,1.774,2.03,2.03,0,0,0,1.613.692,1.976,1.976,0,0,0,1.572-.678A2.718,2.718,0,0,0,47,23.125V22.111a2.6,2.6,0,0,0-.595-1.768,2.186,2.186,0,0,0-3.172-.007,2.638,2.638,0,0,0-.608,1.829Zm-6.9,2.316-1.436-.9L44,9.035l1.436.9Z" transform="translate(286 796)" fill="#888"/></g><g transform="translate(354)"><line y2="616" transform="translate(-50 160)" fill="none" stroke="#e3e3e3" stroke-width="2"/><path d="M20.721,27H7.678V25.182l6.891-7.656A16.37,16.37,0,0,0,16.681,14.7a4.712,4.712,0,0,0,.581-2.249A3.572,3.572,0,0,0,16.318,9.9a3.3,3.3,0,0,0-2.516-1A3.906,3.906,0,0,0,10.87,9.972a4.1,4.1,0,0,0-1.046,2.987H7.295A5.871,5.871,0,0,1,9.065,8.516,6.563,6.563,0,0,1,13.8,6.82a6.307,6.307,0,0,1,4.389,1.456A4.967,4.967,0,0,1,19.8,12.152q0,2.939-3.746,7l-5.332,5.783h9.994Zm3.842-9.98,1.012-9.926h10.2V9.432H27.721l-.6,5.428A6.424,6.424,0,0,1,30.441,14a5.492,5.492,0,0,1,4.32,1.8,7.046,7.046,0,0,1,1.6,4.86A6.8,6.8,0,0,1,34.7,25.5a6.054,6.054,0,0,1-4.642,1.771,6.292,6.292,0,0,1-4.307-1.463,5.839,5.839,0,0,1-1.9-4.047h2.393a4.017,4.017,0,0,0,1.217,2.577,3.783,3.783,0,0,0,2.6.868,3.413,3.413,0,0,0,2.769-1.2,5.03,5.03,0,0,0,1-3.322,4.616,4.616,0,0,0-1.087-3.206,3.7,3.7,0,0,0-2.892-1.21,4.17,4.17,0,0,0-2.6.725l-.67.547Zm14.342-6.1a4.039,4.039,0,0,1,1.142-2.953,4.289,4.289,0,0,1,5.879.007A4.179,4.179,0,0,1,47.053,11v.971a3.987,3.987,0,0,1-1.142,2.946,3.936,3.936,0,0,1-2.905,1.142,4.022,4.022,0,0,1-2.939-1.142A4.071,4.071,0,0,1,38.9,11.879Zm1.887,1.047a2.587,2.587,0,0,0,.6,1.761,2.03,2.03,0,0,0,1.613.692,1.99,1.99,0,0,0,1.565-.671,2.672,2.672,0,0,0,.595-1.836v-1a2.652,2.652,0,0,0-.588-1.768,2.18,2.18,0,0,0-3.2,0,2.735,2.735,0,0,0-.588,1.823ZM48.6,22.119a4.016,4.016,0,0,1,1.142-2.946,4.318,4.318,0,0,1,5.872-.007,4.121,4.121,0,0,1,1.148,3.049v.971a4.016,4.016,0,0,1-1.142,2.946A3.928,3.928,0,0,1,52.7,27.287a4.022,4.022,0,0,1-2.939-1.142A4.071,4.071,0,0,1,48.6,23.1Zm1.887,1.061a2.607,2.607,0,0,0,.6,1.774,2.03,2.03,0,0,0,1.613.692,1.976,1.976,0,0,0,1.572-.678,2.718,2.718,0,0,0,.588-1.843V22.111a2.6,2.6,0,0,0-.595-1.768,2.186,2.186,0,0,0-3.172-.007,2.638,2.638,0,0,0-.608,1.829ZM43.58,25.5l-1.436-.9L51.865,9.035l1.436.9Z" transform="translate(178 796)" fill="#888"/></g><g transform="translate(706)"><line y2="616" transform="translate(-146 160)" fill="none" stroke="#e3e3e3" stroke-width="2"/><path d="M8.84,17.02,9.852,7.094h10.2V9.432H12l-.6,5.428A6.424,6.424,0,0,1,14.719,14a5.492,5.492,0,0,1,4.32,1.8,7.046,7.046,0,0,1,1.6,4.86A6.8,6.8,0,0,1,18.978,25.5a6.054,6.054,0,0,1-4.642,1.771,6.292,6.292,0,0,1-4.307-1.463,5.839,5.839,0,0,1-1.9-4.047h2.393a4.017,4.017,0,0,0,1.217,2.577,3.783,3.783,0,0,0,2.6.868,3.413,3.413,0,0,0,2.769-1.2,5.03,5.03,0,0,0,1-3.322,4.616,4.616,0,0,0-1.087-3.206,3.7,3.7,0,0,0-2.892-1.21,4.17,4.17,0,0,0-2.6.725l-.67.547Zm27.043,1.49q0,4.443-1.518,6.6a5.4,5.4,0,0,1-4.744,2.16A5.437,5.437,0,0,1,24.9,25.161q-1.531-2.112-1.586-6.31V15.475q0-4.389,1.518-6.521A5.439,5.439,0,0,1,29.594,6.82a5.488,5.488,0,0,1,4.73,2.058q1.518,2.058,1.559,6.351Zm-2.529-3.459a9.268,9.268,0,0,0-.9-4.683A3.106,3.106,0,0,0,29.594,8.9a3.065,3.065,0,0,0-2.83,1.463,9.049,9.049,0,0,0-.916,4.5v4.047a9.417,9.417,0,0,0,.937,4.765,3.1,3.1,0,0,0,2.837,1.538A3.057,3.057,0,0,0,32.4,23.76a9.076,9.076,0,0,0,.95-4.566ZM38.9,10.922a4.039,4.039,0,0,1,1.142-2.953,4.289,4.289,0,0,1,5.879.007A4.179,4.179,0,0,1,47.053,11v.971a3.987,3.987,0,0,1-1.142,2.946,3.936,3.936,0,0,1-2.905,1.142,4.022,4.022,0,0,1-2.939-1.142A4.071,4.071,0,0,1,38.9,11.879Zm1.887,1.047a2.587,2.587,0,0,0,.6,1.761,2.03,2.03,0,0,0,1.613.692,1.99,1.99,0,0,0,1.565-.671,2.672,2.672,0,0,0,.595-1.836v-1a2.652,2.652,0,0,0-.588-1.768,2.18,2.18,0,0,0-3.2,0,2.735,2.735,0,0,0-.588,1.823ZM48.6,22.119a4.016,4.016,0,0,1,1.142-2.946,4.318,4.318,0,0,1,5.872-.007,4.121,4.121,0,0,1,1.148,3.049v.971a4.016,4.016,0,0,1-1.142,2.946A3.928,3.928,0,0,1,52.7,27.287a4.022,4.022,0,0,1-2.939-1.142A4.071,4.071,0,0,1,48.6,23.1Zm1.887,1.061a2.607,2.607,0,0,0,.6,1.774,2.03,2.03,0,0,0,1.613.692,1.976,1.976,0,0,0,1.572-.678,2.718,2.718,0,0,0,.588-1.843V22.111a2.6,2.6,0,0,0-.595-1.768,2.186,2.186,0,0,0-3.172-.007,2.638,2.638,0,0,0-.608,1.829ZM43.58,25.5l-1.436-.9L51.865,9.035l1.436.9Z" transform="translate(86 797.5)" fill="#888"/></g><g transform="translate(1058 -7.5)"><line y2="616" transform="translate(14 167.5)" fill="none" stroke="#e3e3e3" stroke-width="2"/><line y2="616" transform="translate(270 167.5)" fill="none" stroke="#e3e3e3" stroke-width="2"/><line y2="616" transform="translate(-242 167.5)" fill="none" stroke="#e3e3e3" stroke-width="2"/><path d="M12.129,27H9.586V10.143l-5.1,1.873v-2.3L11.732,7h.4Zm19.893-8.49q0,4.443-1.518,6.6a5.4,5.4,0,0,1-4.744,2.16,5.437,5.437,0,0,1-4.717-2.112q-1.531-2.112-1.586-6.31V15.475q0-4.389,1.518-6.521A5.439,5.439,0,0,1,25.732,6.82a5.488,5.488,0,0,1,4.73,2.058q1.518,2.058,1.559,6.351Zm-2.529-3.459a9.268,9.268,0,0,0-.9-4.683A3.106,3.106,0,0,0,25.732,8.9a3.065,3.065,0,0,0-2.83,1.463,9.049,9.049,0,0,0-.916,4.5v4.047a9.417,9.417,0,0,0,.937,4.765,3.1,3.1,0,0,0,2.837,1.538,3.057,3.057,0,0,0,2.782-1.449,9.076,9.076,0,0,0,.95-4.566ZM47.744,18.51q0,4.443-1.518,6.6a5.4,5.4,0,0,1-4.744,2.16,5.437,5.437,0,0,1-4.717-2.112q-1.531-2.112-1.586-6.31V15.475q0-4.389,1.518-6.521A5.439,5.439,0,0,1,41.455,6.82a5.488,5.488,0,0,1,4.73,2.058q1.518,2.058,1.559,6.351Zm-2.529-3.459a9.268,9.268,0,0,0-.9-4.683A3.106,3.106,0,0,0,41.455,8.9a3.065,3.065,0,0,0-2.83,1.463,9.049,9.049,0,0,0-.916,4.5v4.047a9.417,9.417,0,0,0,.937,4.765,3.1,3.1,0,0,0,2.837,1.538,3.057,3.057,0,0,0,2.782-1.449,9.076,9.076,0,0,0,.95-4.566Zm5.551-4.129a4.039,4.039,0,0,1,1.142-2.953,4.289,4.289,0,0,1,5.879.007A4.179,4.179,0,0,1,58.914,11v.971a3.987,3.987,0,0,1-1.142,2.946,3.936,3.936,0,0,1-2.905,1.142,4.022,4.022,0,0,1-2.939-1.142,4.071,4.071,0,0,1-1.162-3.042Zm1.887,1.047a2.587,2.587,0,0,0,.6,1.761,2.03,2.03,0,0,0,1.613.692,1.99,1.99,0,0,0,1.565-.671,2.672,2.672,0,0,0,.595-1.836v-1a2.652,2.652,0,0,0-.588-1.768,2.18,2.18,0,0,0-3.2,0,2.735,2.735,0,0,0-.588,1.823Zm7.807,10.15A4.016,4.016,0,0,1,61.6,19.173a4.318,4.318,0,0,1,5.872-.007,4.121,4.121,0,0,1,1.148,3.049v.971a4.016,4.016,0,0,1-1.142,2.946,3.928,3.928,0,0,1-2.919,1.155,4.022,4.022,0,0,1-2.939-1.142A4.071,4.071,0,0,1,60.459,23.1Zm1.887,1.061a2.607,2.607,0,0,0,.6,1.774,2.03,2.03,0,0,0,1.613.692,1.976,1.976,0,0,0,1.572-.678,2.718,2.718,0,0,0,.588-1.843V22.111a2.6,2.6,0,0,0-.595-1.768,2.186,2.186,0,0,0-3.172-.007,2.638,2.638,0,0,0-.608,1.829Zm-6.9,2.316-1.436-.9L63.727,9.035l1.436.9Z" transform="translate(198 804.5)" fill="#888"/><path d="M20.529,8.516,12.285,27H9.633L17.85,9.172H7.076V7.094H20.529Zm4.033,8.5,1.012-9.926h10.2V9.432H27.721l-.6,5.428A6.424,6.424,0,0,1,30.441,14a5.492,5.492,0,0,1,4.32,1.8,7.046,7.046,0,0,1,1.6,4.86A6.8,6.8,0,0,1,34.7,25.5a6.054,6.054,0,0,1-4.642,1.771,6.292,6.292,0,0,1-4.307-1.463,5.839,5.839,0,0,1-1.9-4.047h2.393a4.017,4.017,0,0,0,1.217,2.577,3.783,3.783,0,0,0,2.6.868,3.413,3.413,0,0,0,2.769-1.2,5.03,5.03,0,0,0,1-3.322,4.616,4.616,0,0,0-1.087-3.206,3.7,3.7,0,0,0-2.892-1.21,4.17,4.17,0,0,0-2.6.725l-.67.547Zm14.342-6.1a4.039,4.039,0,0,1,1.142-2.953,4.289,4.289,0,0,1,5.879.007A4.179,4.179,0,0,1,47.053,11v.971a3.987,3.987,0,0,1-1.142,2.946,3.936,3.936,0,0,1-2.905,1.142,4.022,4.022,0,0,1-2.939-1.142A4.071,4.071,0,0,1,38.9,11.879Zm1.887,1.047a2.587,2.587,0,0,0,.6,1.761,2.03,2.03,0,0,0,1.613.692,1.99,1.99,0,0,0,1.565-.671,2.672,2.672,0,0,0,.595-1.836v-1a2.652,2.652,0,0,0-.588-1.768,2.18,2.18,0,0,0-3.2,0,2.735,2.735,0,0,0-.588,1.823ZM48.6,22.119a4.016,4.016,0,0,1,1.142-2.946,4.318,4.318,0,0,1,5.872-.007,4.121,4.121,0,0,1,1.148,3.049v.971a4.016,4.016,0,0,1-1.142,2.946A3.928,3.928,0,0,1,52.7,27.287a4.022,4.022,0,0,1-2.939-1.142A4.071,4.071,0,0,1,48.6,23.1Zm1.887,1.061a2.607,2.607,0,0,0,.6,1.774,2.03,2.03,0,0,0,1.613.692,1.976,1.976,0,0,0,1.572-.678,2.718,2.718,0,0,0,.588-1.843V22.111a2.6,2.6,0,0,0-.595-1.768,2.186,2.186,0,0,0-3.172-.007,2.638,2.638,0,0,0-.608,1.829ZM43.58,25.5l-1.436-.9L51.865,9.035l1.436.9Z" transform="translate(-18 804.5)" fill="#888"/></g><g transform="translate(-3878 -857)"><g transform="translate(0 -832)"><path d="M6,0H412a0,0,0,0,1,0,0V48a0,0,0,0,1,0,0H6a6,6,0,0,1-6-6V6A6,6,0,0,1,6,0Z" transform="translate(4182 2377)" fill="#1269d3"/><path d="M0,0H606a6,6,0,0,1,6,6V42a6,6,0,0,1-6,6H0a0,0,0,0,1,0,0V0A0,0,0,0,1,0,0Z" transform="translate(4594 2377)" fill="#c02"/><path d="M14.547,21.891h2.828v3.047H14.547V30h-3.8V24.938H.922L.813,22.625,10.625,7.25h3.922Zm-9.75,0H10.75v-9.5l-.281.5ZM35.188,30h-15.3V27.391l7.578-8.266A18.871,18.871,0,0,0,29.8,16.07a4.949,4.949,0,0,0,.7-2.461,3.739,3.739,0,0,0-.914-2.625,3.171,3.171,0,0,0-2.461-1,3.655,3.655,0,0,0-2.859,1.125,4.424,4.424,0,0,0-1.016,3.078h-3.8a7.441,7.441,0,0,1,.945-3.742,6.509,6.509,0,0,1,2.7-2.586,8.6,8.6,0,0,1,4.055-.922A7.7,7.7,0,0,1,32.383,8.6,5.776,5.776,0,0,1,34.3,13.2a7.809,7.809,0,0,1-.961,3.57,20.3,20.3,0,0,1-3.148,4.242l-5.562,5.953H35.188Zm3.672,5.125-2.047-1.219a11.041,11.041,0,0,0,1.242-2.477,7.39,7.39,0,0,0,.352-2.148V26.328h3.422l-.016,2.734a7.621,7.621,0,0,1-.836,3.32A8.248,8.248,0,0,1,38.859,35.125Zm21.078-14.7q0,4.906-1.836,7.4a6.484,6.484,0,0,1-5.586,2.492,6.57,6.57,0,0,1-5.555-2.43q-1.867-2.43-1.914-7.2V16.75q0-4.906,1.836-7.359a6.544,6.544,0,0,1,5.6-2.453,6.581,6.581,0,0,1,5.57,2.391q1.836,2.391,1.883,7.156Zm-3.8-4.25a9.626,9.626,0,0,0-.875-4.7A3.344,3.344,0,0,0,49.75,11.4a8.9,8.9,0,0,0-.922,4.414v5.156a9.875,9.875,0,0,0,.891,4.75,2.992,2.992,0,0,0,2.8,1.563,2.939,2.939,0,0,0,2.7-1.445,9.291,9.291,0,0,0,.922-4.523Zm7-4.547a4.566,4.566,0,0,1,1.328-3.383,5.289,5.289,0,0,1,6.992,0,4.68,4.68,0,0,1,1.32,3.461v1.125a4.534,4.534,0,0,1-1.32,3.359A4.716,4.716,0,0,1,67.984,17.5a4.865,4.865,0,0,1-3.477-1.289,4.55,4.55,0,0,1-1.367-3.477Zm2.656,1.2a2.506,2.506,0,0,0,.6,1.747,2.035,2.035,0,0,0,1.586.666,1.993,1.993,0,0,0,1.563-.666,2.62,2.62,0,0,0,.594-1.809V11.616a2.535,2.535,0,0,0-.6-1.755,2.024,2.024,0,0,0-1.586-.674,1.966,1.966,0,0,0-1.57.681,2.655,2.655,0,0,0-.586,1.794Zm8.281,11.6a4.472,4.472,0,0,1,1.359-3.391,5.3,5.3,0,0,1,6.945,0,4.623,4.623,0,0,1,1.352,3.5v1.109a4.57,4.57,0,0,1-1.3,3.352,4.688,4.688,0,0,1-3.492,1.32,4.827,4.827,0,0,1-3.523-1.3,4.6,4.6,0,0,1-1.336-3.445Zm2.656,1.2a2.492,2.492,0,0,0,.617,1.742,2.045,2.045,0,0,0,1.586.68,1.983,1.983,0,0,0,1.57-.648,2.666,2.666,0,0,0,.57-1.82V24.406a2.469,2.469,0,0,0-.609-1.75,2.2,2.2,0,0,0-3.133,0,2.581,2.581,0,0,0-.6,1.813ZM68.766,28.3l-1.953-1.125L77.922,9.391l1.953,1.125Z" transform="translate(4495 2382)" fill="#fff"/><path d="M2.719,18.719,3.953,7.25H16.172v3.281H7.109l-.625,5.438a7.024,7.024,0,0,1,3.563-.906A6.338,6.338,0,0,1,15.1,17.141a8.235,8.235,0,0,1,1.8,5.594,7.58,7.58,0,0,1-2,5.523,7.3,7.3,0,0,1-5.484,2.055,7.645,7.645,0,0,1-5.18-1.773,6.411,6.411,0,0,1-2.227-4.68H5.688A4.01,4.01,0,0,0,6.875,26.4a3.612,3.612,0,0,0,2.531.883,3.264,3.264,0,0,0,2.727-1.25,5.4,5.4,0,0,0,.977-3.406,4.767,4.767,0,0,0-1.078-3.289,3.771,3.771,0,0,0-2.969-1.211,4.939,4.939,0,0,0-1.75.273,4.956,4.956,0,0,0-1.562,1.07Zm31.5-5.469a5.289,5.289,0,0,1-.859,2.977,5.961,5.961,0,0,1-2.344,2.055,6.492,6.492,0,0,1,2.742,2.266,5.715,5.715,0,0,1,.961,3.25,5.969,5.969,0,0,1-2.031,4.758,7.973,7.973,0,0,1-5.406,1.758,8,8,0,0,1-5.43-1.766,5.964,5.964,0,0,1-2.039-4.75,5.782,5.782,0,0,1,.969-3.281A6.223,6.223,0,0,1,23.5,18.281a5.927,5.927,0,0,1-2.32-2.055,5.324,5.324,0,0,1-.852-2.977A5.918,5.918,0,0,1,22.2,8.641a7.244,7.244,0,0,1,5.063-1.7,7.267,7.267,0,0,1,5.078,1.7A5.918,5.918,0,0,1,34.219,13.25Zm-3.3,10.359a3.75,3.75,0,0,0-1.008-2.727,3.542,3.542,0,0,0-2.664-1.039A3.5,3.5,0,0,0,24.6,20.875a3.778,3.778,0,0,0-.992,2.734,3.66,3.66,0,0,0,.977,2.672,3.594,3.594,0,0,0,2.7,1,3.605,3.605,0,0,0,2.68-.969A3.671,3.671,0,0,0,30.922,23.609Zm-.484-10.219a3.53,3.53,0,0,0-.859-2.445,2.948,2.948,0,0,0-2.312-.961,2.972,2.972,0,0,0-2.3.914,3.532,3.532,0,0,0-.844,2.492,3.518,3.518,0,0,0,.852,2.484,2.984,2.984,0,0,0,2.3.922,2.984,2.984,0,0,0,2.3-.922A3.518,3.518,0,0,0,30.438,13.391Zm8.422,21.734-2.047-1.219a11.041,11.041,0,0,0,1.242-2.477,7.39,7.39,0,0,0,.352-2.148V26.328h3.422l-.016,2.734a7.621,7.621,0,0,1-.836,3.32A8.248,8.248,0,0,1,38.859,35.125Zm21.078-14.7q0,4.906-1.836,7.4a6.484,6.484,0,0,1-5.586,2.492,6.57,6.57,0,0,1-5.555-2.43q-1.867-2.43-1.914-7.2V16.75q0-4.906,1.836-7.359a6.544,6.544,0,0,1,5.6-2.453,6.581,6.581,0,0,1,5.57,2.391q1.836,2.391,1.883,7.156Zm-3.8-4.25a9.626,9.626,0,0,0-.875-4.7A3.344,3.344,0,0,0,49.75,11.4a8.9,8.9,0,0,0-.922,4.414v5.156a9.875,9.875,0,0,0,.891,4.75,2.992,2.992,0,0,0,2.8,1.563,2.939,2.939,0,0,0,2.7-1.445,9.291,9.291,0,0,0,.922-4.523Zm7-4.547a4.566,4.566,0,0,1,1.328-3.383,5.289,5.289,0,0,1,6.992,0,4.68,4.68,0,0,1,1.32,3.461v1.125a4.534,4.534,0,0,1-1.32,3.359A4.716,4.716,0,0,1,67.984,17.5a4.865,4.865,0,0,1-3.477-1.289,4.55,4.55,0,0,1-1.367-3.477Zm2.656,1.2a2.506,2.506,0,0,0,.6,1.747,2.035,2.035,0,0,0,1.586.666,1.993,1.993,0,0,0,1.563-.666,2.62,2.62,0,0,0,.594-1.809V11.616a2.535,2.535,0,0,0-.6-1.755,2.024,2.024,0,0,0-1.586-.674,1.966,1.966,0,0,0-1.57.681,2.655,2.655,0,0,0-.586,1.794Zm8.281,11.6a4.472,4.472,0,0,1,1.359-3.391,5.3,5.3,0,0,1,6.945,0,4.623,4.623,0,0,1,1.352,3.5v1.109a4.57,4.57,0,0,1-1.3,3.352,4.688,4.688,0,0,1-3.492,1.32,4.827,4.827,0,0,1-3.523-1.3,4.6,4.6,0,0,1-1.336-3.445Zm2.656,1.2a2.492,2.492,0,0,0,.617,1.742,2.045,2.045,0,0,0,1.586.68,1.983,1.983,0,0,0,1.57-.648,2.666,2.666,0,0,0,.57-1.82V24.406a2.469,2.469,0,0,0-.609-1.75,2.2,2.2,0,0,0-3.133,0,2.581,2.581,0,0,0-.6,1.813ZM68.766,28.3l-1.953-1.125L77.922,9.391l1.953,1.125Z" transform="translate(5107 2382)" fill="#fff"/><path d="M6,0H376a0,0,0,0,1,0,0V48a0,0,0,0,1,0,0H6a6,6,0,0,1-6-6V6A6,6,0,0,1,6,0Z" transform="translate(4182 2289)" fill="#1269d3"/><path d="M0,0H642a6,6,0,0,1,6,6V42a6,6,0,0,1-6,6H0a0,0,0,0,1,0,0V0A0,0,0,0,1,0,0Z" transform="translate(4558 2289)" fill="#c02"/><path d="M6.094,16.891H8.406a4.138,4.138,0,0,0,2.773-.906A3.233,3.233,0,0,0,12.2,13.406a3.523,3.523,0,0,0-.852-2.523,3.427,3.427,0,0,0-2.6-.9,3.625,3.625,0,0,0-2.516.883,2.95,2.95,0,0,0-.984,2.3h-3.8a5.747,5.747,0,0,1,.93-3.187A6.246,6.246,0,0,1,4.977,7.742a8.449,8.449,0,0,1,3.727-.8,7.825,7.825,0,0,1,5.352,1.711A6,6,0,0,1,16,13.406a4.835,4.835,0,0,1-.977,2.883A6.124,6.124,0,0,1,12.5,18.328a5.582,5.582,0,0,1,2.852,2.016,5.519,5.519,0,0,1,.977,3.281,6.11,6.11,0,0,1-2.1,4.875A8.159,8.159,0,0,1,8.7,30.313a8.1,8.1,0,0,1-5.375-1.75,5.763,5.763,0,0,1-2.094-4.656h3.8a3.176,3.176,0,0,0,1.008,2.438,3.822,3.822,0,0,0,2.711.938,3.942,3.942,0,0,0,2.781-.937,3.517,3.517,0,0,0,1.016-2.719,3.553,3.553,0,0,0-1.062-2.766,4.543,4.543,0,0,0-3.156-.969H6.094ZM31.7,7.141v3.141h-.469a7.537,7.537,0,0,0-5.094,1.75,7.323,7.323,0,0,0-2.266,4.828,6.165,6.165,0,0,1,4.672-1.922A5.823,5.823,0,0,1,33.3,17.063a8.369,8.369,0,0,1,1.742,5.484,7.824,7.824,0,0,1-2.039,5.617,7.039,7.039,0,0,1-5.352,2.148A6.875,6.875,0,0,1,22.133,27.8,9.9,9.9,0,0,1,20.016,21.2v-1.3q0-5.984,2.914-9.375t8.383-3.391ZM27.625,18a4,4,0,0,0-2.289.7,4.11,4.11,0,0,0-1.523,1.875v1.156a6.811,6.811,0,0,0,1.063,4.023,3.24,3.24,0,0,0,2.75,1.492A3.2,3.2,0,0,0,30.3,25.984a5.27,5.27,0,0,0,.984-3.328,5.346,5.346,0,0,0-1-3.359A3.188,3.188,0,0,0,27.625,18ZM38.859,35.125l-2.047-1.219a11.041,11.041,0,0,0,1.242-2.477,7.39,7.39,0,0,0,.352-2.148V26.328h3.422l-.016,2.734a7.621,7.621,0,0,1-.836,3.32A8.248,8.248,0,0,1,38.859,35.125ZM60.406,30h-15.3V27.391l7.578-8.266a18.871,18.871,0,0,0,2.336-3.055,4.949,4.949,0,0,0,.7-2.461,3.739,3.739,0,0,0-.914-2.625,3.171,3.171,0,0,0-2.461-1,3.655,3.655,0,0,0-2.859,1.125,4.424,4.424,0,0,0-1.016,3.078h-3.8a7.441,7.441,0,0,1,.945-3.742,6.509,6.509,0,0,1,2.7-2.586,8.6,8.6,0,0,1,4.055-.922A7.7,7.7,0,0,1,57.6,8.6a5.776,5.776,0,0,1,1.914,4.6,7.809,7.809,0,0,1-.961,3.57,20.3,20.3,0,0,1-3.148,4.242l-5.562,5.953H60.406Zm2.734-18.375a4.566,4.566,0,0,1,1.328-3.383,5.289,5.289,0,0,1,6.992,0,4.68,4.68,0,0,1,1.32,3.461v1.125a4.534,4.534,0,0,1-1.32,3.359A4.716,4.716,0,0,1,67.984,17.5a4.865,4.865,0,0,1-3.477-1.289,4.55,4.55,0,0,1-1.367-3.477Zm2.656,1.2a2.506,2.506,0,0,0,.6,1.747,2.035,2.035,0,0,0,1.586.666,1.993,1.993,0,0,0,1.563-.666,2.62,2.62,0,0,0,.594-1.809V11.616a2.535,2.535,0,0,0-.6-1.755,2.024,2.024,0,0,0-1.586-.674,1.966,1.966,0,0,0-1.57.681,2.655,2.655,0,0,0-.586,1.794Zm8.281,11.6a4.472,4.472,0,0,1,1.359-3.391,5.3,5.3,0,0,1,6.945,0,4.623,4.623,0,0,1,1.352,3.5v1.109a4.57,4.57,0,0,1-1.3,3.352,4.688,4.688,0,0,1-3.492,1.32,4.827,4.827,0,0,1-3.523-1.3,4.6,4.6,0,0,1-1.336-3.445Zm2.656,1.2a2.492,2.492,0,0,0,.617,1.742,2.045,2.045,0,0,0,1.586.68,1.983,1.983,0,0,0,1.57-.648,2.666,2.666,0,0,0,.57-1.82V24.406a2.469,2.469,0,0,0-.609-1.75,2.2,2.2,0,0,0-3.133,0,2.581,2.581,0,0,0-.6,1.813ZM68.766,28.3l-1.953-1.125L77.922,9.391l1.953,1.125Z" transform="translate(4459 2294)" fill="#fff"/><path d="M13.516,7.141v3.141h-.469a7.537,7.537,0,0,0-5.094,1.75,7.323,7.323,0,0,0-2.266,4.828,6.165,6.165,0,0,1,4.672-1.922,5.823,5.823,0,0,1,4.758,2.125,8.369,8.369,0,0,1,1.742,5.484,7.824,7.824,0,0,1-2.039,5.617,7.039,7.039,0,0,1-5.352,2.148A6.875,6.875,0,0,1,3.945,27.8,9.9,9.9,0,0,1,1.828,21.2v-1.3q0-5.984,2.914-9.375t8.383-3.391ZM9.438,18a4,4,0,0,0-2.289.7,4.11,4.11,0,0,0-1.523,1.875v1.156a6.811,6.811,0,0,0,1.063,4.023,3.24,3.24,0,0,0,2.75,1.492,3.2,3.2,0,0,0,2.672-1.266,5.27,5.27,0,0,0,.984-3.328,5.346,5.346,0,0,0-1-3.359A3.188,3.188,0,0,0,9.438,18Zm14.844-1.109h2.313a4.138,4.138,0,0,0,2.773-.906,3.233,3.233,0,0,0,1.023-2.578,3.523,3.523,0,0,0-.852-2.523,3.427,3.427,0,0,0-2.6-.9,3.625,3.625,0,0,0-2.516.883,2.95,2.95,0,0,0-.984,2.3h-3.8a5.747,5.747,0,0,1,.93-3.187,6.246,6.246,0,0,1,2.594-2.242,8.449,8.449,0,0,1,3.727-.8,7.825,7.825,0,0,1,5.352,1.711,6,6,0,0,1,1.945,4.758,4.835,4.835,0,0,1-.977,2.883,6.124,6.124,0,0,1-2.523,2.039,5.582,5.582,0,0,1,2.852,2.016,5.519,5.519,0,0,1,.977,3.281,6.11,6.11,0,0,1-2.1,4.875,8.159,8.159,0,0,1-5.523,1.813,8.1,8.1,0,0,1-5.375-1.75,5.763,5.763,0,0,1-2.094-4.656h3.8a3.176,3.176,0,0,0,1.008,2.438,3.822,3.822,0,0,0,2.711.938,3.942,3.942,0,0,0,2.781-.937,3.517,3.517,0,0,0,1.016-2.719,3.553,3.553,0,0,0-1.062-2.766,4.543,4.543,0,0,0-3.156-.969H24.281ZM38.859,35.125l-2.047-1.219a11.041,11.041,0,0,0,1.242-2.477,7.39,7.39,0,0,0,.352-2.148V26.328h3.422l-.016,2.734a7.621,7.621,0,0,1-.836,3.32A8.248,8.248,0,0,1,38.859,35.125ZM59.438,13.25a5.289,5.289,0,0,1-.859,2.977,5.961,5.961,0,0,1-2.344,2.055,6.492,6.492,0,0,1,2.742,2.266,5.715,5.715,0,0,1,.961,3.25,5.969,5.969,0,0,1-2.031,4.758A7.973,7.973,0,0,1,52.5,30.313a8,8,0,0,1-5.43-1.766,5.964,5.964,0,0,1-2.039-4.75A5.782,5.782,0,0,1,46,20.516a6.223,6.223,0,0,1,2.719-2.234,5.927,5.927,0,0,1-2.32-2.055,5.324,5.324,0,0,1-.852-2.977,5.918,5.918,0,0,1,1.875-4.609,7.244,7.244,0,0,1,5.063-1.7,7.267,7.267,0,0,1,5.078,1.7A5.918,5.918,0,0,1,59.438,13.25Zm-3.3,10.359a3.75,3.75,0,0,0-1.008-2.727,3.542,3.542,0,0,0-2.664-1.039,3.5,3.5,0,0,0-2.648,1.031,3.778,3.778,0,0,0-.992,2.734,3.66,3.66,0,0,0,.977,2.672,4.161,4.161,0,0,0,5.375.031A3.671,3.671,0,0,0,56.141,23.609Zm-.484-10.219a3.53,3.53,0,0,0-.859-2.445,3.3,3.3,0,0,0-4.609-.047,3.532,3.532,0,0,0-.844,2.492,3.518,3.518,0,0,0,.852,2.484,3.342,3.342,0,0,0,4.609,0A3.518,3.518,0,0,0,55.656,13.391Zm7.484-1.766a4.566,4.566,0,0,1,1.328-3.383,5.289,5.289,0,0,1,6.992,0,4.68,4.68,0,0,1,1.32,3.461v1.125a4.534,4.534,0,0,1-1.32,3.359A4.716,4.716,0,0,1,67.984,17.5a4.865,4.865,0,0,1-3.477-1.289,4.55,4.55,0,0,1-1.367-3.477Zm2.656,1.2a2.506,2.506,0,0,0,.6,1.747,2.035,2.035,0,0,0,1.586.666,1.993,1.993,0,0,0,1.563-.666,2.62,2.62,0,0,0,.594-1.809V11.616a2.535,2.535,0,0,0-.6-1.755,2.024,2.024,0,0,0-1.586-.674,1.966,1.966,0,0,0-1.57.681,2.655,2.655,0,0,0-.586,1.794Zm8.281,11.6a4.472,4.472,0,0,1,1.359-3.391,5.3,5.3,0,0,1,6.945,0,4.623,4.623,0,0,1,1.352,3.5v1.109a4.57,4.57,0,0,1-1.3,3.352,4.688,4.688,0,0,1-3.492,1.32,4.827,4.827,0,0,1-3.523-1.3,4.6,4.6,0,0,1-1.336-3.445Zm2.656,1.2a2.492,2.492,0,0,0,.617,1.742,2.045,2.045,0,0,0,1.586.68,1.983,1.983,0,0,0,1.57-.648,2.666,2.666,0,0,0,.57-1.82V24.406a2.469,2.469,0,0,0-.609-1.75,2.2,2.2,0,0,0-3.133,0,2.581,2.581,0,0,0-.6,1.813ZM68.766,28.3l-1.953-1.125L77.922,9.391l1.953,1.125Z" transform="translate(5107 2294)" fill="#fff"/><path d="M6,0H352a0,0,0,0,1,0,0V48a0,0,0,0,1,0,0H6a6,6,0,0,1-6-6V6A6,6,0,0,1,6,0Z" transform="translate(4182 2201)" fill="#1269d3"/><path d="M0,0H666a6,6,0,0,1,6,6V42a6,6,0,0,1-6,6H0a0,0,0,0,1,0,0V0A0,0,0,0,1,0,0Z" transform="translate(4534 2201)" fill="#c02"/><path d="M6.094,16.891H8.406a4.138,4.138,0,0,0,2.773-.906A3.233,3.233,0,0,0,12.2,13.406a3.523,3.523,0,0,0-.852-2.523,3.427,3.427,0,0,0-2.6-.9,3.625,3.625,0,0,0-2.516.883,2.95,2.95,0,0,0-.984,2.3h-3.8a5.747,5.747,0,0,1,.93-3.187A6.246,6.246,0,0,1,4.977,7.742a8.449,8.449,0,0,1,3.727-.8,7.825,7.825,0,0,1,5.352,1.711A6,6,0,0,1,16,13.406a4.835,4.835,0,0,1-.977,2.883A6.124,6.124,0,0,1,12.5,18.328a5.582,5.582,0,0,1,2.852,2.016,5.519,5.519,0,0,1,.977,3.281,6.11,6.11,0,0,1-2.1,4.875A8.159,8.159,0,0,1,8.7,30.313a8.1,8.1,0,0,1-5.375-1.75,5.763,5.763,0,0,1-2.094-4.656h3.8a3.176,3.176,0,0,0,1.008,2.438,3.822,3.822,0,0,0,2.711.938,3.942,3.942,0,0,0,2.781-.937,3.517,3.517,0,0,0,1.016-2.719,3.553,3.553,0,0,0-1.062-2.766,4.543,4.543,0,0,0-3.156-.969H6.094Zm26.641,5h2.828v3.047H32.734V30h-3.8V24.938H19.109L19,22.625,28.813,7.25h3.922Zm-9.75,0h5.953v-9.5l-.281.5ZM38.859,35.125l-2.047-1.219a11.041,11.041,0,0,0,1.242-2.477,7.39,7.39,0,0,0,.352-2.148V26.328h3.422l-.016,2.734a7.621,7.621,0,0,1-.836,3.32A8.248,8.248,0,0,1,38.859,35.125ZM60.406,30h-15.3V27.391l7.578-8.266a18.871,18.871,0,0,0,2.336-3.055,4.949,4.949,0,0,0,.7-2.461,3.739,3.739,0,0,0-.914-2.625,3.171,3.171,0,0,0-2.461-1,3.655,3.655,0,0,0-2.859,1.125,4.424,4.424,0,0,0-1.016,3.078h-3.8a7.441,7.441,0,0,1,.945-3.742,6.509,6.509,0,0,1,2.7-2.586,8.6,8.6,0,0,1,4.055-.922A7.7,7.7,0,0,1,57.6,8.6a5.776,5.776,0,0,1,1.914,4.6,7.809,7.809,0,0,1-.961,3.57,20.3,20.3,0,0,1-3.148,4.242l-5.562,5.953H60.406Zm2.734-18.375a4.566,4.566,0,0,1,1.328-3.383,5.289,5.289,0,0,1,6.992,0,4.68,4.68,0,0,1,1.32,3.461v1.125a4.534,4.534,0,0,1-1.32,3.359A4.716,4.716,0,0,1,67.984,17.5a4.865,4.865,0,0,1-3.477-1.289,4.55,4.55,0,0,1-1.367-3.477Zm2.656,1.2a2.506,2.506,0,0,0,.6,1.747,2.035,2.035,0,0,0,1.586.666,1.993,1.993,0,0,0,1.563-.666,2.62,2.62,0,0,0,.594-1.809V11.616a2.535,2.535,0,0,0-.6-1.755,2.024,2.024,0,0,0-1.586-.674,1.966,1.966,0,0,0-1.57.681,2.655,2.655,0,0,0-.586,1.794Zm8.281,11.6a4.472,4.472,0,0,1,1.359-3.391,5.3,5.3,0,0,1,6.945,0,4.623,4.623,0,0,1,1.352,3.5v1.109a4.57,4.57,0,0,1-1.3,3.352,4.688,4.688,0,0,1-3.492,1.32,4.827,4.827,0,0,1-3.523-1.3,4.6,4.6,0,0,1-1.336-3.445Zm2.656,1.2a2.492,2.492,0,0,0,.617,1.742,2.045,2.045,0,0,0,1.586.68,1.983,1.983,0,0,0,1.57-.648,2.666,2.666,0,0,0,.57-1.82V24.406a2.469,2.469,0,0,0-.609-1.75,2.2,2.2,0,0,0-3.133,0,2.581,2.581,0,0,0-.6,1.813ZM68.766,28.3l-1.953-1.125L77.922,9.391l1.953,1.125Z" transform="translate(4435 2206)" fill="#fff"/><path d="M13.516,7.141v3.141h-.469a7.537,7.537,0,0,0-5.094,1.75,7.323,7.323,0,0,0-2.266,4.828,6.165,6.165,0,0,1,4.672-1.922,5.823,5.823,0,0,1,4.758,2.125,8.369,8.369,0,0,1,1.742,5.484,7.824,7.824,0,0,1-2.039,5.617,7.039,7.039,0,0,1-5.352,2.148A6.875,6.875,0,0,1,3.945,27.8,9.9,9.9,0,0,1,1.828,21.2v-1.3q0-5.984,2.914-9.375t8.383-3.391ZM9.438,18a4,4,0,0,0-2.289.7,4.11,4.11,0,0,0-1.523,1.875v1.156a6.811,6.811,0,0,0,1.063,4.023,3.24,3.24,0,0,0,2.75,1.492,3.2,3.2,0,0,0,2.672-1.266,5.27,5.27,0,0,0,.984-3.328,5.346,5.346,0,0,0-1-3.359A3.188,3.188,0,0,0,9.438,18Zm11.469.719L22.141,7.25H34.359v3.281H25.3l-.625,5.438a7.024,7.024,0,0,1,3.563-.906,6.338,6.338,0,0,1,5.055,2.078,8.235,8.235,0,0,1,1.8,5.594,7.58,7.58,0,0,1-2,5.523,7.3,7.3,0,0,1-5.484,2.055,7.645,7.645,0,0,1-5.18-1.773,6.411,6.411,0,0,1-2.227-4.68h3.672A4.01,4.01,0,0,0,25.063,26.4a3.612,3.612,0,0,0,2.531.883,3.264,3.264,0,0,0,2.727-1.25,5.4,5.4,0,0,0,.977-3.406,4.767,4.767,0,0,0-1.078-3.289,3.771,3.771,0,0,0-2.969-1.211,4.939,4.939,0,0,0-1.75.273,4.956,4.956,0,0,0-1.562,1.07ZM38.859,35.125l-2.047-1.219a11.041,11.041,0,0,0,1.242-2.477,7.39,7.39,0,0,0,.352-2.148V26.328h3.422l-.016,2.734a7.621,7.621,0,0,1-.836,3.32A8.248,8.248,0,0,1,38.859,35.125ZM59.438,13.25a5.289,5.289,0,0,1-.859,2.977,5.961,5.961,0,0,1-2.344,2.055,6.492,6.492,0,0,1,2.742,2.266,5.715,5.715,0,0,1,.961,3.25,5.969,5.969,0,0,1-2.031,4.758A7.973,7.973,0,0,1,52.5,30.313a8,8,0,0,1-5.43-1.766,5.964,5.964,0,0,1-2.039-4.75A5.782,5.782,0,0,1,46,20.516a6.223,6.223,0,0,1,2.719-2.234,5.927,5.927,0,0,1-2.32-2.055,5.324,5.324,0,0,1-.852-2.977,5.918,5.918,0,0,1,1.875-4.609,7.244,7.244,0,0,1,5.063-1.7,7.267,7.267,0,0,1,5.078,1.7A5.918,5.918,0,0,1,59.438,13.25Zm-3.3,10.359a3.75,3.75,0,0,0-1.008-2.727,3.542,3.542,0,0,0-2.664-1.039,3.5,3.5,0,0,0-2.648,1.031,3.778,3.778,0,0,0-.992,2.734,3.66,3.66,0,0,0,.977,2.672,4.161,4.161,0,0,0,5.375.031A3.671,3.671,0,0,0,56.141,23.609Zm-.484-10.219a3.53,3.53,0,0,0-.859-2.445,3.3,3.3,0,0,0-4.609-.047,3.532,3.532,0,0,0-.844,2.492,3.518,3.518,0,0,0,.852,2.484,3.342,3.342,0,0,0,4.609,0A3.518,3.518,0,0,0,55.656,13.391Zm7.484-1.766a4.566,4.566,0,0,1,1.328-3.383,5.289,5.289,0,0,1,6.992,0,4.68,4.68,0,0,1,1.32,3.461v1.125a4.534,4.534,0,0,1-1.32,3.359A4.716,4.716,0,0,1,67.984,17.5a4.865,4.865,0,0,1-3.477-1.289,4.55,4.55,0,0,1-1.367-3.477Zm2.656,1.2a2.506,2.506,0,0,0,.6,1.747,2.035,2.035,0,0,0,1.586.666,1.993,1.993,0,0,0,1.563-.666,2.62,2.62,0,0,0,.594-1.809V11.616a2.535,2.535,0,0,0-.6-1.755,2.024,2.024,0,0,0-1.586-.674,1.966,1.966,0,0,0-1.57.681,2.655,2.655,0,0,0-.586,1.794Zm8.281,11.6a4.472,4.472,0,0,1,1.359-3.391,5.3,5.3,0,0,1,6.945,0,4.623,4.623,0,0,1,1.352,3.5v1.109a4.57,4.57,0,0,1-1.3,3.352,4.688,4.688,0,0,1-3.492,1.32,4.827,4.827,0,0,1-3.523-1.3,4.6,4.6,0,0,1-1.336-3.445Zm2.656,1.2a2.492,2.492,0,0,0,.617,1.742,2.045,2.045,0,0,0,1.586.68,1.983,1.983,0,0,0,1.57-.648,2.666,2.666,0,0,0,.57-1.82V24.406a2.469,2.469,0,0,0-.609-1.75,2.2,2.2,0,0,0-3.133,0,2.581,2.581,0,0,0-.6,1.813ZM68.766,28.3l-1.953-1.125L77.922,9.391l1.953,1.125Z" transform="translate(5102 2206)" fill="#fff"/><path d="M6,0H358a0,0,0,0,1,0,0V48a0,0,0,0,1,0,0H6a6,6,0,0,1-6-6V6A6,6,0,0,1,6,0Z" transform="translate(4182 2113)" fill="#1269d3"/><path d="M0,0H660a6,6,0,0,1,6,6V42a6,6,0,0,1-6,6H0a0,0,0,0,1,0,0V0A0,0,0,0,1,0,0Z" transform="translate(4540 2113)" fill="#c02"/><path d="M6.094,16.891H8.406a4.138,4.138,0,0,0,2.773-.906A3.233,3.233,0,0,0,12.2,13.406a3.523,3.523,0,0,0-.852-2.523,3.427,3.427,0,0,0-2.6-.9,3.625,3.625,0,0,0-2.516.883,2.95,2.95,0,0,0-.984,2.3h-3.8a5.747,5.747,0,0,1,.93-3.187A6.246,6.246,0,0,1,4.977,7.742a8.449,8.449,0,0,1,3.727-.8,7.825,7.825,0,0,1,5.352,1.711A6,6,0,0,1,16,13.406a4.835,4.835,0,0,1-.977,2.883A6.124,6.124,0,0,1,12.5,18.328a5.582,5.582,0,0,1,2.852,2.016,5.519,5.519,0,0,1,.977,3.281,6.11,6.11,0,0,1-2.1,4.875A8.159,8.159,0,0,1,8.7,30.313a8.1,8.1,0,0,1-5.375-1.75,5.763,5.763,0,0,1-2.094-4.656h3.8a3.176,3.176,0,0,0,1.008,2.438,3.822,3.822,0,0,0,2.711.938,3.942,3.942,0,0,0,2.781-.937,3.517,3.517,0,0,0,1.016-2.719,3.553,3.553,0,0,0-1.062-2.766,4.543,4.543,0,0,0-3.156-.969H6.094Zm26.641,5h2.828v3.047H32.734V30h-3.8V24.938H19.109L19,22.625,28.813,7.25h3.922Zm-9.75,0h5.953v-9.5l-.281.5ZM38.859,35.125l-2.047-1.219a11.041,11.041,0,0,0,1.242-2.477,7.39,7.39,0,0,0,.352-2.148V26.328h3.422l-.016,2.734a7.621,7.621,0,0,1-.836,3.32A8.248,8.248,0,0,1,38.859,35.125ZM55.875,20.484a6.205,6.205,0,0,1-9.234-.086,8.252,8.252,0,0,1-1.781-5.523,9.055,9.055,0,0,1,.906-4.078,6.758,6.758,0,0,1,2.578-2.844,7.315,7.315,0,0,1,3.875-1.016A6.572,6.572,0,0,1,57.672,9.5a10.793,10.793,0,0,1,2.016,6.859v1.063q0,6.156-2.781,9.391t-8.3,3.281h-.453V26.953H48.7a7.775,7.775,0,0,0,5.156-1.617A6.741,6.741,0,0,0,55.875,20.484Zm-3.656-.953a3.832,3.832,0,0,0,2.141-.656,4.324,4.324,0,0,0,1.547-1.812V15.578a7.127,7.127,0,0,0-1.031-4.047A3.107,3.107,0,0,0,52.2,10a3.07,3.07,0,0,0-2.617,1.352,5.681,5.681,0,0,0-.977,3.414,5.611,5.611,0,0,0,.984,3.453A3.118,3.118,0,0,0,52.219,19.531Zm10.922-7.906a4.566,4.566,0,0,1,1.328-3.383,5.289,5.289,0,0,1,6.992,0,4.68,4.68,0,0,1,1.32,3.461v1.125a4.534,4.534,0,0,1-1.32,3.359A4.716,4.716,0,0,1,67.984,17.5a4.865,4.865,0,0,1-3.477-1.289,4.55,4.55,0,0,1-1.367-3.477Zm2.656,1.2a2.506,2.506,0,0,0,.6,1.747,2.035,2.035,0,0,0,1.586.666,1.993,1.993,0,0,0,1.563-.666,2.62,2.62,0,0,0,.594-1.809V11.616a2.535,2.535,0,0,0-.6-1.755,2.024,2.024,0,0,0-1.586-.674,1.966,1.966,0,0,0-1.57.681,2.655,2.655,0,0,0-.586,1.794Zm8.281,11.6a4.472,4.472,0,0,1,1.359-3.391,5.3,5.3,0,0,1,6.945,0,4.623,4.623,0,0,1,1.352,3.5v1.109a4.57,4.57,0,0,1-1.3,3.352,4.688,4.688,0,0,1-3.492,1.32,4.827,4.827,0,0,1-3.523-1.3,4.6,4.6,0,0,1-1.336-3.445Zm2.656,1.2a2.492,2.492,0,0,0,.617,1.742,2.045,2.045,0,0,0,1.586.68,1.983,1.983,0,0,0,1.57-.648,2.666,2.666,0,0,0,.57-1.82V24.406a2.469,2.469,0,0,0-.609-1.75,2.2,2.2,0,0,0-3.133,0,2.581,2.581,0,0,0-.6,1.813ZM68.766,28.3l-1.953-1.125L77.922,9.391l1.953,1.125Z" transform="translate(4441 2118)" fill="#fff"/><path d="M13.516,7.141v3.141h-.469a7.537,7.537,0,0,0-5.094,1.75,7.323,7.323,0,0,0-2.266,4.828,6.165,6.165,0,0,1,4.672-1.922,5.823,5.823,0,0,1,4.758,2.125,8.369,8.369,0,0,1,1.742,5.484,7.824,7.824,0,0,1-2.039,5.617,7.039,7.039,0,0,1-5.352,2.148A6.875,6.875,0,0,1,3.945,27.8,9.9,9.9,0,0,1,1.828,21.2v-1.3q0-5.984,2.914-9.375t8.383-3.391ZM9.438,18a4,4,0,0,0-2.289.7,4.11,4.11,0,0,0-1.523,1.875v1.156a6.811,6.811,0,0,0,1.063,4.023,3.24,3.24,0,0,0,2.75,1.492,3.2,3.2,0,0,0,2.672-1.266,5.27,5.27,0,0,0,.984-3.328,5.346,5.346,0,0,0-1-3.359A3.188,3.188,0,0,0,9.438,18Zm11.469.719L22.141,7.25H34.359v3.281H25.3l-.625,5.438a7.024,7.024,0,0,1,3.563-.906,6.338,6.338,0,0,1,5.055,2.078,8.235,8.235,0,0,1,1.8,5.594,7.58,7.58,0,0,1-2,5.523,7.3,7.3,0,0,1-5.484,2.055,7.645,7.645,0,0,1-5.18-1.773,6.411,6.411,0,0,1-2.227-4.68h3.672A4.01,4.01,0,0,0,25.063,26.4a3.612,3.612,0,0,0,2.531.883,3.264,3.264,0,0,0,2.727-1.25,5.4,5.4,0,0,0,.977-3.406,4.767,4.767,0,0,0-1.078-3.289,3.771,3.771,0,0,0-2.969-1.211,4.939,4.939,0,0,0-1.75.273,4.956,4.956,0,0,0-1.562,1.07ZM38.859,35.125l-2.047-1.219a11.041,11.041,0,0,0,1.242-2.477,7.39,7.39,0,0,0,.352-2.148V26.328h3.422l-.016,2.734a7.621,7.621,0,0,1-.836,3.32A8.248,8.248,0,0,1,38.859,35.125ZM55.391,30H51.609V11.723l-5.578,1.9V10.438l8.875-3.266h.484Zm7.75-18.375a4.566,4.566,0,0,1,1.328-3.383,5.289,5.289,0,0,1,6.992,0,4.68,4.68,0,0,1,1.32,3.461v1.125a4.534,4.534,0,0,1-1.32,3.359A4.716,4.716,0,0,1,67.984,17.5a4.865,4.865,0,0,1-3.477-1.289,4.55,4.55,0,0,1-1.367-3.477Zm2.656,1.2a2.506,2.506,0,0,0,.6,1.747,2.035,2.035,0,0,0,1.586.666,1.993,1.993,0,0,0,1.563-.666,2.62,2.62,0,0,0,.594-1.809V11.616a2.535,2.535,0,0,0-.6-1.755,2.024,2.024,0,0,0-1.586-.674,1.966,1.966,0,0,0-1.57.681,2.655,2.655,0,0,0-.586,1.794Zm8.281,11.6a4.472,4.472,0,0,1,1.359-3.391,5.3,5.3,0,0,1,6.945,0,4.623,4.623,0,0,1,1.352,3.5v1.109a4.57,4.57,0,0,1-1.3,3.352,4.688,4.688,0,0,1-3.492,1.32,4.827,4.827,0,0,1-3.523-1.3,4.6,4.6,0,0,1-1.336-3.445Zm2.656,1.2a2.492,2.492,0,0,0,.617,1.742,2.045,2.045,0,0,0,1.586.68,1.983,1.983,0,0,0,1.57-.648,2.666,2.666,0,0,0,.57-1.82V24.406a2.469,2.469,0,0,0-.609-1.75,2.2,2.2,0,0,0-3.133,0,2.581,2.581,0,0,0-.6,1.813ZM68.766,28.3l-1.953-1.125L77.922,9.391l1.953,1.125Z" transform="translate(5107 2118)" fill="#fff"/><path d="M6,0H400a0,0,0,0,1,0,0V48a0,0,0,0,1,0,0H6a6,6,0,0,1-6-6V6A6,6,0,0,1,6,0Z" transform="translate(4182 2025)" fill="#1269d3"/><path d="M0,0H618a6,6,0,0,1,6,6V42a6,6,0,0,1-6,6H0a0,0,0,0,1,0,0V0A0,0,0,0,1,0,0Z" transform="translate(4582 2025)" fill="#c02"/><path d="M6.094,16.891H8.406a4.138,4.138,0,0,0,2.773-.906A3.233,3.233,0,0,0,12.2,13.406a3.523,3.523,0,0,0-.852-2.523,3.427,3.427,0,0,0-2.6-.9,3.625,3.625,0,0,0-2.516.883,2.95,2.95,0,0,0-.984,2.3h-3.8a5.747,5.747,0,0,1,.93-3.187A6.246,6.246,0,0,1,4.977,7.742a8.449,8.449,0,0,1,3.727-.8,7.825,7.825,0,0,1,5.352,1.711A6,6,0,0,1,16,13.406a4.835,4.835,0,0,1-.977,2.883A6.124,6.124,0,0,1,12.5,18.328a5.582,5.582,0,0,1,2.852,2.016,5.519,5.519,0,0,1,.977,3.281,6.11,6.11,0,0,1-2.1,4.875A8.159,8.159,0,0,1,8.7,30.313a8.1,8.1,0,0,1-5.375-1.75,5.763,5.763,0,0,1-2.094-4.656h3.8a3.176,3.176,0,0,0,1.008,2.438,3.822,3.822,0,0,0,2.711.938,3.942,3.942,0,0,0,2.781-.937,3.517,3.517,0,0,0,1.016-2.719,3.553,3.553,0,0,0-1.062-2.766,4.543,4.543,0,0,0-3.156-.969H6.094ZM34.219,13.25a5.289,5.289,0,0,1-.859,2.977,5.961,5.961,0,0,1-2.344,2.055,6.492,6.492,0,0,1,2.742,2.266,5.715,5.715,0,0,1,.961,3.25,5.969,5.969,0,0,1-2.031,4.758,7.973,7.973,0,0,1-5.406,1.758,8,8,0,0,1-5.43-1.766,5.964,5.964,0,0,1-2.039-4.75,5.782,5.782,0,0,1,.969-3.281A6.223,6.223,0,0,1,23.5,18.281a5.927,5.927,0,0,1-2.32-2.055,5.324,5.324,0,0,1-.852-2.977A5.918,5.918,0,0,1,22.2,8.641a7.244,7.244,0,0,1,5.063-1.7,7.267,7.267,0,0,1,5.078,1.7A5.918,5.918,0,0,1,34.219,13.25Zm-3.3,10.359a3.75,3.75,0,0,0-1.008-2.727,3.542,3.542,0,0,0-2.664-1.039A3.5,3.5,0,0,0,24.6,20.875a3.778,3.778,0,0,0-.992,2.734,3.66,3.66,0,0,0,.977,2.672,3.594,3.594,0,0,0,2.7,1,3.605,3.605,0,0,0,2.68-.969A3.671,3.671,0,0,0,30.922,23.609Zm-.484-10.219a3.53,3.53,0,0,0-.859-2.445,2.948,2.948,0,0,0-2.312-.961,2.972,2.972,0,0,0-2.3.914,3.532,3.532,0,0,0-.844,2.492,3.518,3.518,0,0,0,.852,2.484,2.984,2.984,0,0,0,2.3.922,2.984,2.984,0,0,0,2.3-.922A3.518,3.518,0,0,0,30.438,13.391Zm8.422,21.734-2.047-1.219a11.041,11.041,0,0,0,1.242-2.477,7.39,7.39,0,0,0,.352-2.148V26.328h3.422l-.016,2.734a7.621,7.621,0,0,1-.836,3.32A8.248,8.248,0,0,1,38.859,35.125ZM55.875,20.484a6.205,6.205,0,0,1-9.234-.086,8.252,8.252,0,0,1-1.781-5.523,9.055,9.055,0,0,1,.906-4.078,6.758,6.758,0,0,1,2.578-2.844,7.315,7.315,0,0,1,3.875-1.016A6.572,6.572,0,0,1,57.672,9.5a10.793,10.793,0,0,1,2.016,6.859v1.063q0,6.156-2.781,9.391t-8.3,3.281h-.453V26.953H48.7a7.775,7.775,0,0,0,5.156-1.617A6.741,6.741,0,0,0,55.875,20.484Zm-3.656-.953a3.832,3.832,0,0,0,2.141-.656,4.324,4.324,0,0,0,1.547-1.812V15.578a7.127,7.127,0,0,0-1.031-4.047A3.107,3.107,0,0,0,52.2,10a3.07,3.07,0,0,0-2.617,1.352,5.681,5.681,0,0,0-.977,3.414,5.611,5.611,0,0,0,.984,3.453A3.118,3.118,0,0,0,52.219,19.531Zm10.922-7.906a4.566,4.566,0,0,1,1.328-3.383,5.289,5.289,0,0,1,6.992,0,4.68,4.68,0,0,1,1.32,3.461v1.125a4.534,4.534,0,0,1-1.32,3.359A4.716,4.716,0,0,1,67.984,17.5a4.865,4.865,0,0,1-3.477-1.289,4.55,4.55,0,0,1-1.367-3.477Zm2.656,1.2a2.506,2.506,0,0,0,.6,1.747,2.035,2.035,0,0,0,1.586.666,1.993,1.993,0,0,0,1.563-.666,2.62,2.62,0,0,0,.594-1.809V11.616a2.535,2.535,0,0,0-.6-1.755,2.024,2.024,0,0,0-1.586-.674,1.966,1.966,0,0,0-1.57.681,2.655,2.655,0,0,0-.586,1.794Zm8.281,11.6a4.472,4.472,0,0,1,1.359-3.391,5.3,5.3,0,0,1,6.945,0,4.623,4.623,0,0,1,1.352,3.5v1.109a4.57,4.57,0,0,1-1.3,3.352,4.688,4.688,0,0,1-3.492,1.32,4.827,4.827,0,0,1-3.523-1.3,4.6,4.6,0,0,1-1.336-3.445Zm2.656,1.2a2.492,2.492,0,0,0,.617,1.742,2.045,2.045,0,0,0,1.586.68,1.983,1.983,0,0,0,1.57-.648,2.666,2.666,0,0,0,.57-1.82V24.406a2.469,2.469,0,0,0-.609-1.75,2.2,2.2,0,0,0-3.133,0,2.581,2.581,0,0,0-.6,1.813ZM68.766,28.3l-1.953-1.125L77.922,9.391l1.953,1.125Z" transform="translate(4482 2030)" fill="#fff"/><path d="M13.516,7.141v3.141h-.469a7.537,7.537,0,0,0-5.094,1.75,7.323,7.323,0,0,0-2.266,4.828,6.165,6.165,0,0,1,4.672-1.922,5.823,5.823,0,0,1,4.758,2.125,8.369,8.369,0,0,1,1.742,5.484,7.824,7.824,0,0,1-2.039,5.617,7.039,7.039,0,0,1-5.352,2.148A6.875,6.875,0,0,1,3.945,27.8,9.9,9.9,0,0,1,1.828,21.2v-1.3q0-5.984,2.914-9.375t8.383-3.391ZM9.438,18a4,4,0,0,0-2.289.7,4.11,4.11,0,0,0-1.523,1.875v1.156a6.811,6.811,0,0,0,1.063,4.023,3.24,3.24,0,0,0,2.75,1.492,3.2,3.2,0,0,0,2.672-1.266,5.27,5.27,0,0,0,.984-3.328,5.346,5.346,0,0,0-1-3.359A3.188,3.188,0,0,0,9.438,18ZM30.172,30H26.391V11.723l-5.578,1.9V10.438l8.875-3.266h.484Zm8.688,5.125-2.047-1.219a11.041,11.041,0,0,0,1.242-2.477,7.39,7.39,0,0,0,.352-2.148V26.328h3.422l-.016,2.734a7.621,7.621,0,0,1-.836,3.32A8.248,8.248,0,0,1,38.859,35.125ZM55.391,30H51.609V11.723l-5.578,1.9V10.438l8.875-3.266h.484Zm7.75-18.375a4.566,4.566,0,0,1,1.328-3.383,5.289,5.289,0,0,1,6.992,0,4.68,4.68,0,0,1,1.32,3.461v1.125a4.534,4.534,0,0,1-1.32,3.359A4.716,4.716,0,0,1,67.984,17.5a4.865,4.865,0,0,1-3.477-1.289,4.55,4.55,0,0,1-1.367-3.477Zm2.656,1.2a2.506,2.506,0,0,0,.6,1.747,2.035,2.035,0,0,0,1.586.666,1.993,1.993,0,0,0,1.563-.666,2.62,2.62,0,0,0,.594-1.809V11.616a2.535,2.535,0,0,0-.6-1.755,2.024,2.024,0,0,0-1.586-.674,1.966,1.966,0,0,0-1.57.681,2.655,2.655,0,0,0-.586,1.794Zm8.281,11.6a4.472,4.472,0,0,1,1.359-3.391,5.3,5.3,0,0,1,6.945,0,4.623,4.623,0,0,1,1.352,3.5v1.109a4.57,4.57,0,0,1-1.3,3.352,4.688,4.688,0,0,1-3.492,1.32,4.827,4.827,0,0,1-3.523-1.3,4.6,4.6,0,0,1-1.336-3.445Zm2.656,1.2a2.492,2.492,0,0,0,.617,1.742,2.045,2.045,0,0,0,1.586.68,1.983,1.983,0,0,0,1.57-.648,2.666,2.666,0,0,0,.57-1.82V24.406a2.469,2.469,0,0,0-.609-1.75,2.2,2.2,0,0,0-3.133,0,2.581,2.581,0,0,0-.6,1.813ZM68.766,28.3l-1.953-1.125L77.922,9.391l1.953,1.125Z" transform="translate(5107 2030)" fill="#fff"/><path d="M6,0H416a0,0,0,0,1,0,0V48a0,0,0,0,1,0,0H6a6,6,0,0,1-6-6V6A6,6,0,0,1,6,0Z" transform="translate(4182 1937)" fill="#1269d3"/><path d="M0,0H602a6,6,0,0,1,6,6V42a6,6,0,0,1-6,6H0a0,0,0,0,1,0,0V0A0,0,0,0,1,0,0Z" transform="translate(4598 1937)" fill="#c02"/><path d="M14.547,21.891h2.828v3.047H14.547V30h-3.8V24.938H.922L.813,22.625,10.625,7.25h3.922Zm-9.75,0H10.75v-9.5l-.281.5Zm19.484-5h2.313a4.138,4.138,0,0,0,2.773-.906,3.233,3.233,0,0,0,1.023-2.578,3.523,3.523,0,0,0-.852-2.523,3.427,3.427,0,0,0-2.6-.9,3.625,3.625,0,0,0-2.516.883,2.95,2.95,0,0,0-.984,2.3h-3.8a5.747,5.747,0,0,1,.93-3.187,6.246,6.246,0,0,1,2.594-2.242,8.449,8.449,0,0,1,3.727-.8,7.825,7.825,0,0,1,5.352,1.711,6,6,0,0,1,1.945,4.758,4.835,4.835,0,0,1-.977,2.883,6.124,6.124,0,0,1-2.523,2.039,5.582,5.582,0,0,1,2.852,2.016,5.519,5.519,0,0,1,.977,3.281,6.11,6.11,0,0,1-2.1,4.875,8.159,8.159,0,0,1-5.523,1.813,8.1,8.1,0,0,1-5.375-1.75,5.763,5.763,0,0,1-2.094-4.656h3.8a3.176,3.176,0,0,0,1.008,2.438,3.822,3.822,0,0,0,2.711.938,3.942,3.942,0,0,0,2.781-.937,3.517,3.517,0,0,0,1.016-2.719,3.553,3.553,0,0,0-1.062-2.766,4.543,4.543,0,0,0-3.156-.969H24.281ZM38.859,35.125l-2.047-1.219a11.041,11.041,0,0,0,1.242-2.477,7.39,7.39,0,0,0,.352-2.148V26.328h3.422l-.016,2.734a7.621,7.621,0,0,1-.836,3.32A8.248,8.248,0,0,1,38.859,35.125Zm21.078-14.7q0,4.906-1.836,7.4a6.484,6.484,0,0,1-5.586,2.492,6.57,6.57,0,0,1-5.555-2.43q-1.867-2.43-1.914-7.2V16.75q0-4.906,1.836-7.359a6.544,6.544,0,0,1,5.6-2.453,6.581,6.581,0,0,1,5.57,2.391q1.836,2.391,1.883,7.156Zm-3.8-4.25a9.626,9.626,0,0,0-.875-4.7A3.344,3.344,0,0,0,49.75,11.4a8.9,8.9,0,0,0-.922,4.414v5.156a9.875,9.875,0,0,0,.891,4.75,2.992,2.992,0,0,0,2.8,1.563,2.939,2.939,0,0,0,2.7-1.445,9.291,9.291,0,0,0,.922-4.523Zm7-4.547a4.566,4.566,0,0,1,1.328-3.383,5.289,5.289,0,0,1,6.992,0,4.68,4.68,0,0,1,1.32,3.461v1.125a4.534,4.534,0,0,1-1.32,3.359A4.716,4.716,0,0,1,67.984,17.5a4.865,4.865,0,0,1-3.477-1.289,4.55,4.55,0,0,1-1.367-3.477Zm2.656,1.2a2.506,2.506,0,0,0,.6,1.747,2.035,2.035,0,0,0,1.586.666,1.993,1.993,0,0,0,1.563-.666,2.62,2.62,0,0,0,.594-1.809V11.616a2.535,2.535,0,0,0-.6-1.755,2.024,2.024,0,0,0-1.586-.674,1.966,1.966,0,0,0-1.57.681,2.655,2.655,0,0,0-.586,1.794Zm8.281,11.6a4.472,4.472,0,0,1,1.359-3.391,5.3,5.3,0,0,1,6.945,0,4.623,4.623,0,0,1,1.352,3.5v1.109a4.57,4.57,0,0,1-1.3,3.352,4.688,4.688,0,0,1-3.492,1.32,4.827,4.827,0,0,1-3.523-1.3,4.6,4.6,0,0,1-1.336-3.445Zm2.656,1.2a2.492,2.492,0,0,0,.617,1.742,2.045,2.045,0,0,0,1.586.68,1.983,1.983,0,0,0,1.57-.648,2.666,2.666,0,0,0,.57-1.82V24.406a2.469,2.469,0,0,0-.609-1.75,2.2,2.2,0,0,0-3.133,0,2.581,2.581,0,0,0-.6,1.813ZM68.766,28.3l-1.953-1.125L77.922,9.391l1.953,1.125Z" transform="translate(4499 1942)" fill="#fff"/><path d="M2.719,18.719,3.953,7.25H16.172v3.281H7.109l-.625,5.438a7.024,7.024,0,0,1,3.563-.906A6.338,6.338,0,0,1,15.1,17.141a8.235,8.235,0,0,1,1.8,5.594,7.58,7.58,0,0,1-2,5.523,7.3,7.3,0,0,1-5.484,2.055,7.645,7.645,0,0,1-5.18-1.773,6.411,6.411,0,0,1-2.227-4.68H5.688A4.01,4.01,0,0,0,6.875,26.4a3.612,3.612,0,0,0,2.531.883,3.264,3.264,0,0,0,2.727-1.25,5.4,5.4,0,0,0,.977-3.406,4.767,4.767,0,0,0-1.078-3.289,3.771,3.771,0,0,0-2.969-1.211,4.939,4.939,0,0,0-1.75.273,4.956,4.956,0,0,0-1.562,1.07ZM35.031,9.359,25.938,30H21.953l9.078-19.7H19.266V7.25H35.031Zm3.828,25.766-2.047-1.219a11.041,11.041,0,0,0,1.242-2.477,7.39,7.39,0,0,0,.352-2.148V26.328h3.422l-.016,2.734a7.621,7.621,0,0,1-.836,3.32A8.248,8.248,0,0,1,38.859,35.125Zm21.078-14.7q0,4.906-1.836,7.4a6.484,6.484,0,0,1-5.586,2.492,6.57,6.57,0,0,1-5.555-2.43q-1.867-2.43-1.914-7.2V16.75q0-4.906,1.836-7.359a6.544,6.544,0,0,1,5.6-2.453,6.581,6.581,0,0,1,5.57,2.391q1.836,2.391,1.883,7.156Zm-3.8-4.25a9.626,9.626,0,0,0-.875-4.7A3.344,3.344,0,0,0,49.75,11.4a8.9,8.9,0,0,0-.922,4.414v5.156a9.875,9.875,0,0,0,.891,4.75,2.992,2.992,0,0,0,2.8,1.563,2.939,2.939,0,0,0,2.7-1.445,9.291,9.291,0,0,0,.922-4.523Zm7-4.547a4.566,4.566,0,0,1,1.328-3.383,5.289,5.289,0,0,1,6.992,0,4.68,4.68,0,0,1,1.32,3.461v1.125a4.534,4.534,0,0,1-1.32,3.359A4.716,4.716,0,0,1,67.984,17.5a4.865,4.865,0,0,1-3.477-1.289,4.55,4.55,0,0,1-1.367-3.477Zm2.656,1.2a2.506,2.506,0,0,0,.6,1.747,2.035,2.035,0,0,0,1.586.666,1.993,1.993,0,0,0,1.563-.666,2.62,2.62,0,0,0,.594-1.809V11.616a2.535,2.535,0,0,0-.6-1.755,2.024,2.024,0,0,0-1.586-.674,1.966,1.966,0,0,0-1.57.681,2.655,2.655,0,0,0-.586,1.794Zm8.281,11.6a4.472,4.472,0,0,1,1.359-3.391,5.3,5.3,0,0,1,6.945,0,4.623,4.623,0,0,1,1.352,3.5v1.109a4.57,4.57,0,0,1-1.3,3.352,4.688,4.688,0,0,1-3.492,1.32,4.827,4.827,0,0,1-3.523-1.3,4.6,4.6,0,0,1-1.336-3.445Zm2.656,1.2a2.492,2.492,0,0,0,.617,1.742,2.045,2.045,0,0,0,1.586.68,1.983,1.983,0,0,0,1.57-.648,2.666,2.666,0,0,0,.57-1.82V24.406a2.469,2.469,0,0,0-.609-1.75,2.2,2.2,0,0,0-3.133,0,2.581,2.581,0,0,0-.6,1.813ZM68.766,28.3l-1.953-1.125L77.922,9.391l1.953,1.125Z" transform="translate(5107 1942)" fill="#fff"/><path d="M6,0H464a0,0,0,0,1,0,0V48a0,0,0,0,1,0,0H6a6,6,0,0,1-6-6V6A6,6,0,0,1,6,0Z" transform="translate(4182 1849)" fill="#1269d3"/><path d="M0,0H554a6,6,0,0,1,6,6V42a6,6,0,0,1-6,6H0a0,0,0,0,1,0,0V0A0,0,0,0,1,0,0Z" transform="translate(4646 1849)" fill="#c02"/><path d="M14.547,21.891h2.828v3.047H14.547V30h-3.8V24.938H.922L.813,22.625,10.625,7.25h3.922Zm-9.75,0H10.75v-9.5l-.281.5ZM31.7,7.141v3.141h-.469a7.537,7.537,0,0,0-5.094,1.75,7.323,7.323,0,0,0-2.266,4.828,6.165,6.165,0,0,1,4.672-1.922A5.823,5.823,0,0,1,33.3,17.063a8.369,8.369,0,0,1,1.742,5.484,7.824,7.824,0,0,1-2.039,5.617,7.039,7.039,0,0,1-5.352,2.148A6.875,6.875,0,0,1,22.133,27.8,9.9,9.9,0,0,1,20.016,21.2v-1.3q0-5.984,2.914-9.375t8.383-3.391ZM27.625,18a4,4,0,0,0-2.289.7,4.11,4.11,0,0,0-1.523,1.875v1.156a6.811,6.811,0,0,0,1.063,4.023,3.24,3.24,0,0,0,2.75,1.492A3.2,3.2,0,0,0,30.3,25.984a5.27,5.27,0,0,0,.984-3.328,5.346,5.346,0,0,0-1-3.359A3.188,3.188,0,0,0,27.625,18ZM38.859,35.125l-2.047-1.219a11.041,11.041,0,0,0,1.242-2.477,7.39,7.39,0,0,0,.352-2.148V26.328h3.422l-.016,2.734a7.621,7.621,0,0,1-.836,3.32A8.248,8.248,0,0,1,38.859,35.125Zm7.266-16.406L47.359,7.25H59.578v3.281H50.516l-.625,5.438a7.024,7.024,0,0,1,3.563-.906,6.338,6.338,0,0,1,5.055,2.078,8.235,8.235,0,0,1,1.8,5.594,7.58,7.58,0,0,1-2,5.523,7.3,7.3,0,0,1-5.484,2.055,7.645,7.645,0,0,1-5.18-1.773,6.411,6.411,0,0,1-2.227-4.68h3.672A4.01,4.01,0,0,0,50.281,26.4a3.612,3.612,0,0,0,2.531.883,3.264,3.264,0,0,0,2.727-1.25,5.4,5.4,0,0,0,.977-3.406,4.767,4.767,0,0,0-1.078-3.289,3.771,3.771,0,0,0-2.969-1.211,4.147,4.147,0,0,0-3.312,1.344Zm17.016-7.094a4.566,4.566,0,0,1,1.328-3.383,5.289,5.289,0,0,1,6.992,0,4.68,4.68,0,0,1,1.32,3.461v1.125a4.534,4.534,0,0,1-1.32,3.359A4.716,4.716,0,0,1,67.984,17.5a4.865,4.865,0,0,1-3.477-1.289,4.55,4.55,0,0,1-1.367-3.477Zm2.656,1.2a2.506,2.506,0,0,0,.6,1.747,2.035,2.035,0,0,0,1.586.666,1.993,1.993,0,0,0,1.563-.666,2.62,2.62,0,0,0,.594-1.809V11.616a2.535,2.535,0,0,0-.6-1.755,2.024,2.024,0,0,0-1.586-.674,1.966,1.966,0,0,0-1.57.681,2.655,2.655,0,0,0-.586,1.794Zm8.281,11.6a4.472,4.472,0,0,1,1.359-3.391,5.3,5.3,0,0,1,6.945,0,4.623,4.623,0,0,1,1.352,3.5v1.109a4.57,4.57,0,0,1-1.3,3.352,4.688,4.688,0,0,1-3.492,1.32,4.827,4.827,0,0,1-3.523-1.3,4.6,4.6,0,0,1-1.336-3.445Zm2.656,1.2a2.492,2.492,0,0,0,.617,1.742,2.045,2.045,0,0,0,1.586.68,1.983,1.983,0,0,0,1.57-.648,2.666,2.666,0,0,0,.57-1.82V24.406a2.469,2.469,0,0,0-.609-1.75,2.2,2.2,0,0,0-3.133,0,2.581,2.581,0,0,0-.6,1.813ZM68.766,28.3l-1.953-1.125L77.922,9.391l1.953,1.125Z" transform="translate(4547 1854)" fill="#fff"/><path d="M2.719,18.719,3.953,7.25H16.172v3.281H7.109l-.625,5.438a7.024,7.024,0,0,1,3.563-.906A6.338,6.338,0,0,1,15.1,17.141a8.235,8.235,0,0,1,1.8,5.594,7.58,7.58,0,0,1-2,5.523,7.3,7.3,0,0,1-5.484,2.055,7.645,7.645,0,0,1-5.18-1.773,6.411,6.411,0,0,1-2.227-4.68H5.688A4.01,4.01,0,0,0,6.875,26.4a3.612,3.612,0,0,0,2.531.883,3.264,3.264,0,0,0,2.727-1.25,5.4,5.4,0,0,0,.977-3.406,4.767,4.767,0,0,0-1.078-3.289,3.771,3.771,0,0,0-2.969-1.211,4.939,4.939,0,0,0-1.75.273,4.956,4.956,0,0,0-1.562,1.07Zm21.563-1.828h2.313a4.138,4.138,0,0,0,2.773-.906,3.233,3.233,0,0,0,1.023-2.578,3.523,3.523,0,0,0-.852-2.523,3.427,3.427,0,0,0-2.6-.9,3.625,3.625,0,0,0-2.516.883,2.95,2.95,0,0,0-.984,2.3h-3.8a5.747,5.747,0,0,1,.93-3.187,6.246,6.246,0,0,1,2.594-2.242,8.449,8.449,0,0,1,3.727-.8,7.825,7.825,0,0,1,5.352,1.711,6,6,0,0,1,1.945,4.758,4.835,4.835,0,0,1-.977,2.883,6.124,6.124,0,0,1-2.523,2.039,5.582,5.582,0,0,1,2.852,2.016,5.519,5.519,0,0,1,.977,3.281,6.11,6.11,0,0,1-2.1,4.875,8.159,8.159,0,0,1-5.523,1.813,8.1,8.1,0,0,1-5.375-1.75,5.763,5.763,0,0,1-2.094-4.656h3.8a3.176,3.176,0,0,0,1.008,2.438,3.822,3.822,0,0,0,2.711.938,3.942,3.942,0,0,0,2.781-.937,3.517,3.517,0,0,0,1.016-2.719,3.553,3.553,0,0,0-1.062-2.766,4.543,4.543,0,0,0-3.156-.969H24.281ZM38.859,35.125l-2.047-1.219a11.041,11.041,0,0,0,1.242-2.477,7.39,7.39,0,0,0,.352-2.148V26.328h3.422l-.016,2.734a7.621,7.621,0,0,1-.836,3.32A8.248,8.248,0,0,1,38.859,35.125Zm7.266-16.406L47.359,7.25H59.578v3.281H50.516l-.625,5.438a7.024,7.024,0,0,1,3.563-.906,6.338,6.338,0,0,1,5.055,2.078,8.235,8.235,0,0,1,1.8,5.594,7.58,7.58,0,0,1-2,5.523,7.3,7.3,0,0,1-5.484,2.055,7.645,7.645,0,0,1-5.18-1.773,6.411,6.411,0,0,1-2.227-4.68h3.672A4.01,4.01,0,0,0,50.281,26.4a3.612,3.612,0,0,0,2.531.883,3.264,3.264,0,0,0,2.727-1.25,5.4,5.4,0,0,0,.977-3.406,4.767,4.767,0,0,0-1.078-3.289,3.771,3.771,0,0,0-2.969-1.211,4.147,4.147,0,0,0-3.312,1.344Zm17.016-7.094a4.566,4.566,0,0,1,1.328-3.383,5.289,5.289,0,0,1,6.992,0,4.68,4.68,0,0,1,1.32,3.461v1.125a4.534,4.534,0,0,1-1.32,3.359A4.716,4.716,0,0,1,67.984,17.5a4.865,4.865,0,0,1-3.477-1.289,4.55,4.55,0,0,1-1.367-3.477Zm2.656,1.2a2.506,2.506,0,0,0,.6,1.747,2.035,2.035,0,0,0,1.586.666,1.993,1.993,0,0,0,1.563-.666,2.62,2.62,0,0,0,.594-1.809V11.616a2.535,2.535,0,0,0-.6-1.755,2.024,2.024,0,0,0-1.586-.674,1.966,1.966,0,0,0-1.57.681,2.655,2.655,0,0,0-.586,1.794Zm8.281,11.6a4.472,4.472,0,0,1,1.359-3.391,5.3,5.3,0,0,1,6.945,0,4.623,4.623,0,0,1,1.352,3.5v1.109a4.57,4.57,0,0,1-1.3,3.352,4.688,4.688,0,0,1-3.492,1.32,4.827,4.827,0,0,1-3.523-1.3,4.6,4.6,0,0,1-1.336-3.445Zm2.656,1.2a2.492,2.492,0,0,0,.617,1.742,2.045,2.045,0,0,0,1.586.68,1.983,1.983,0,0,0,1.57-.648,2.666,2.666,0,0,0,.57-1.82V24.406a2.469,2.469,0,0,0-.609-1.75,2.2,2.2,0,0,0-3.133,0,2.581,2.581,0,0,0-.6,1.813ZM68.766,28.3l-1.953-1.125L77.922,9.391l1.953,1.125Z" transform="translate(5107 1854)" fill="#fff"/></g></g><path d="M2.311,27V7.094H7.93a9.046,9.046,0,0,1,4.594,1.148,7.767,7.767,0,0,1,3.083,3.268,10.636,10.636,0,0,1,1.1,4.867v1.271a10.673,10.673,0,0,1-1.087,4.936,7.645,7.645,0,0,1-3.1,3.254A9.622,9.622,0,0,1,7.82,27ZM4.936,9.24V24.854H7.7a6.009,6.009,0,0,0,4.724-1.888,7.8,7.8,0,0,0,1.688-5.378V16.424a7.926,7.926,0,0,0-1.593-5.275A5.668,5.668,0,0,0,8,9.24ZM26.414,27.273A6.463,6.463,0,0,1,21.52,25.3a7.332,7.332,0,0,1-1.887-5.284v-.465a8.877,8.877,0,0,1,.841-3.931,6.559,6.559,0,0,1,2.352-2.707,5.912,5.912,0,0,1,3.274-.978,5.54,5.54,0,0,1,4.484,1.9,8.228,8.228,0,0,1,1.6,5.441v1.053H22.162a5.258,5.258,0,0,0,1.278,3.534,4.018,4.018,0,0,0,3.11,1.347,4.405,4.405,0,0,0,2.27-.547,5.7,5.7,0,0,0,1.627-1.449l1.545,1.2A6.212,6.212,0,0,1,26.414,27.273ZM26.1,14.012a3.374,3.374,0,0,0-2.57,1.114,5.416,5.416,0,0,0-1.285,3.124h7.41v-.191a4.817,4.817,0,0,0-1.039-2.987A3.176,3.176,0,0,0,26.1,14.012Zm17.623,9.064a1.862,1.862,0,0,0-.772-1.593,7.435,7.435,0,0,0-2.693-.978,12.734,12.734,0,0,1-3.049-.984,4.337,4.337,0,0,1-1.668-1.367A3.27,3.27,0,0,1,35,16.268a3.837,3.837,0,0,1,1.538-3.076,6.007,6.007,0,0,1,3.931-1.258,6.181,6.181,0,0,1,4.081,1.3,4.125,4.125,0,0,1,1.565,3.322H43.572a2.283,2.283,0,0,0-.882-1.791,3.3,3.3,0,0,0-2.222-.752,3.458,3.458,0,0,0-2.16.6,1.894,1.894,0,0,0-.779,1.572,1.534,1.534,0,0,0,.725,1.381,8.915,8.915,0,0,0,2.618.889,13.642,13.642,0,0,1,3.069,1.012,4.477,4.477,0,0,1,1.743,1.415,3.479,3.479,0,0,1,.567,2.017,3.786,3.786,0,0,1-1.586,3.179,6.652,6.652,0,0,1-4.115,1.2,7.449,7.449,0,0,1-3.145-.629,5.114,5.114,0,0,1-2.14-1.757,4.234,4.234,0,0,1-.772-2.44h2.529a2.619,2.619,0,0,0,1.019,2.017,3.951,3.951,0,0,0,2.509.745,4.079,4.079,0,0,0,2.3-.581A1.785,1.785,0,0,0,43.723,23.076Zm9.953-2.926L52.09,21.8V27H49.561V6H52.09V18.7l1.354-1.627,4.607-4.867h3.076l-5.756,6.18L61.8,27H58.83ZM67.17,8.625v3.582h2.762v1.955H67.17v9.185a2.053,2.053,0,0,0,.369,1.335,1.554,1.554,0,0,0,1.258.445,6.124,6.124,0,0,0,1.2-.164V27a7.376,7.376,0,0,1-1.941.272A3.15,3.15,0,0,1,65.5,26.248a4.405,4.405,0,0,1-.861-2.912V14.162H61.947V12.207h2.693V8.625Zm4.771,10.842a8.737,8.737,0,0,1,.854-3.91,6.374,6.374,0,0,1,2.379-2.68,6.476,6.476,0,0,1,3.479-.943,6.238,6.238,0,0,1,4.888,2.092,8.048,8.048,0,0,1,1.866,5.564v.178a8.814,8.814,0,0,1-.827,3.876,6.281,6.281,0,0,1-2.365,2.673,6.55,6.55,0,0,1-3.534.957,6.223,6.223,0,0,1-4.874-2.092,8.007,8.007,0,0,1-1.866-5.537Zm2.543.3a6.329,6.329,0,0,0,1.142,3.951,3.869,3.869,0,0,0,6.118-.021,6.92,6.92,0,0,0,1.135-4.231,6.318,6.318,0,0,0-1.155-3.944,3.673,3.673,0,0,0-3.069-1.511,3.632,3.632,0,0,0-3.021,1.49A6.869,6.869,0,0,0,74.484,19.768Zm26.592,0a8.858,8.858,0,0,1-1.545,5.441,4.952,4.952,0,0,1-4.184,2.064,5.425,5.425,0,0,1-4.238-1.709v7.123H88.58V12.207h2.311l.123,1.641a5.21,5.21,0,0,1,4.293-1.914,5.044,5.044,0,0,1,4.218,2.01,8.954,8.954,0,0,1,1.552,5.592Zm-2.529-.287a6.536,6.536,0,0,0-1.066-3.951,3.435,3.435,0,0,0-2.926-1.449,3.718,3.718,0,0,0-3.445,2.037v7.068a3.725,3.725,0,0,0,3.473,2.023,3.419,3.419,0,0,0,2.892-1.442A7.135,7.135,0,0,0,98.547,19.48Z" transform="translate(410 880)" fill="#111"/><rect width="80" height="32" rx="4" transform="translate(304 882)" fill="#1269d3"/><path d="M5.7,7.094l6.508,16.242L18.717,7.094h3.4V27H19.5V19.248l.246-8.367L13.207,27H11.2L4.676,10.922l.26,8.326V27H2.311V7.094ZM25.689,19.467a8.738,8.738,0,0,1,.854-3.91,6.374,6.374,0,0,1,2.379-2.68,6.476,6.476,0,0,1,3.479-.943,6.238,6.238,0,0,1,4.888,2.092,8.048,8.048,0,0,1,1.866,5.564v.178a8.814,8.814,0,0,1-.827,3.876,6.281,6.281,0,0,1-2.365,2.673,6.55,6.55,0,0,1-3.534.957,6.223,6.223,0,0,1-4.874-2.092,8.007,8.007,0,0,1-1.866-5.537Zm2.543.3a6.329,6.329,0,0,0,1.142,3.951,3.869,3.869,0,0,0,6.118-.021,6.92,6.92,0,0,0,1.135-4.231,6.318,6.318,0,0,0-1.155-3.944A3.673,3.673,0,0,0,32.4,14.012a3.632,3.632,0,0,0-3.021,1.49A6.869,6.869,0,0,0,28.232,19.768Zm26.619,0a8.8,8.8,0,0,1-1.559,5.448,4.98,4.98,0,0,1-4.184,2.058,5.157,5.157,0,0,1-4.334-1.982L44.652,27H42.328V6h2.529v7.834a5.128,5.128,0,0,1,4.225-1.9,5.01,5.01,0,0,1,4.231,2.037,9.06,9.06,0,0,1,1.538,5.578Zm-2.529-.287a6.835,6.835,0,0,0-1-3.992,3.3,3.3,0,0,0-2.871-1.408,3.713,3.713,0,0,0-3.6,2.324v6.4a3.817,3.817,0,0,0,3.623,2.324,3.286,3.286,0,0,0,2.83-1.408A7.268,7.268,0,0,0,52.322,19.48ZM60.785,27H58.256V12.207h2.529ZM58.051,8.283a1.51,1.51,0,0,1,.376-1.039,1.412,1.412,0,0,1,1.114-.424,1.434,1.434,0,0,1,1.121.424,1.494,1.494,0,0,1,.383,1.039,1.445,1.445,0,0,1-.383,1.025,1.46,1.46,0,0,1-1.121.41,1.437,1.437,0,0,1-1.114-.41A1.46,1.46,0,0,1,58.051,8.283ZM67.58,27H65.051V6H67.58Zm10.186.273A6.463,6.463,0,0,1,72.871,25.3a7.332,7.332,0,0,1-1.887-5.284v-.465a8.877,8.877,0,0,1,.841-3.931,6.559,6.559,0,0,1,2.352-2.707,5.912,5.912,0,0,1,3.274-.978,5.54,5.54,0,0,1,4.484,1.9,8.228,8.228,0,0,1,1.6,5.441v1.053H73.514a5.258,5.258,0,0,0,1.278,3.534,4.018,4.018,0,0,0,3.11,1.347,4.405,4.405,0,0,0,2.27-.547A5.7,5.7,0,0,0,81.8,23.213l1.545,1.2A6.212,6.212,0,0,1,77.766,27.273Zm-.314-13.262a3.374,3.374,0,0,0-2.57,1.114A5.416,5.416,0,0,0,73.6,18.25h7.41v-.191a4.817,4.817,0,0,0-1.039-2.987A3.176,3.176,0,0,0,77.451,14.012Z" transform="translate(677 880)" fill="#111"/><rect width="80" height="32" rx="4" transform="translate(571 881)" fill="#c02"/></svg>